/* XPM */
static char *_48428e17858454a95ba3f51a397450dNr7v7enKMTjqLLc2[] = {
/* columns rows colors chars-per-pixel */
"64 64 242 2 ",
"   c #020201",
".  c #070603",
"X  c #0A0A06",
"o  c #0D0E0A",
"O  c #170908",
"+  c #0F120D",
"@  c #161407",
"#  c #12130E",
"$  c #0E1212",
"%  c #141512",
"&  c #171916",
"*  c #1B1B15",
"=  c #1C1D1A",
"-  c #38180B",
";  c #211E19",
":  c #1D201C",
">  c #222015",
",  c #23231D",
"<  c #2A271B",
"1  c #382E13",
"2  c #3A2718",
"3  c #1A2124",
"4  c #242522",
"5  c #262923",
"6  c #2A2B25",
"7  c #282826",
"8  c #2C2D2A",
"9  c #352B26",
"0  c #2F3025",
"q  c #2E322D",
"w  c #32322D",
"e  c #3B3829",
"r  c #2E3232",
"t  c #353632",
"y  c #3A3633",
"u  c #363A34",
"i  c #3B3B35",
"p  c #323638",
"a  c #363939",
"s  c #3C3E3A",
"d  c #4F140D",
"f  c #5D1712",
"g  c #6D1309",
"h  c #691D1B",
"j  c #7C1817",
"k  c #57231D",
"l  c #4B3B1C",
"z  c #533811",
"x  c #6D2A13",
"c  c #681F20",
"v  c #472A26",
"b  c #592A25",
"n  c #453628",
"m  c #5B3925",
"M  c #453D36",
"N  c #583632",
"B  c #672525",
"V  c #72332E",
"C  c #683733",
"Z  c #3D400A",
"A  c #3E4321",
"S  c #3E423C",
"D  c #594E06",
"F  c #584619",
"G  c #56521B",
"H  c #695606",
"J  c #755007",
"K  c #684916",
"L  c #784B16",
"P  c #67591B",
"I  c #76581D",
"U  c #756807",
"Y  c #706309",
"T  c #49492B",
"R  c #584A24",
"E  c #4D512D",
"W  c #585629",
"Q  c #474738",
"!  c #42433D",
"~  c #4B423B",
"^  c #4A4B3E",
"/  c #554537",
"(  c #5A5836",
")  c #675A26",
"_  c #755A26",
"`  c #704E31",
"'  c #665937",
"]  c #5C613F",
"[  c #756B2C",
"{  c #6A623A",
"}  c #766738",
"|  c #3D3E41",
" . c #3E4241",
".. c #3E4348",
"X. c #444642",
"o. c #474744",
"O. c #464944",
"+. c #4A4B45",
"@. c #454A49",
"#. c #4C4E4A",
"$. c #544E47",
"%. c #4F5143",
"&. c #4E514B",
"*. c #52534D",
"=. c #59564A",
"-. c #4D5351",
";. c #4E5759",
":. c #545552",
">. c #595752",
",. c #565954",
"<. c #5B5B55",
"1. c #565558",
"2. c #555A59",
"3. c #5C5D5A",
"4. c #774D4B",
"5. c #635A4B",
"6. c #625D54",
"7. c #625E5A",
"8. c #7A5954",
"9. c #5E6357",
"0. c #5E615C",
"q. c #686648",
"w. c #776949",
"e. c #6D714B",
"r. c #767244",
"t. c #626455",
"y. c #6C6454",
"u. c #6D6D54",
"i. c #62635D",
"p. c #6A635C",
"a. c #6C6C5D",
"s. c #77685A",
"d. c #71745B",
"f. c #5B5F60",
"g. c #5E6362",
"h. c #646563",
"j. c #686762",
"k. c #656964",
"l. c #6A6A65",
"z. c #636569",
"x. c #68666C",
"c. c #666A6A",
"v. c #6B6D6A",
"b. c #736D64",
"n. c #766E69",
"m. c #6E7367",
"M. c #6D716D",
"N. c #72726D",
"B. c #787468",
"V. c #6B6E71",
"C. c #6E7272",
"Z. c #6F7478",
"A. c #737573",
"S. c #7A7676",
"D. c #757974",
"F. c #7B7A75",
"G. c #73757A",
"H. c #767A7A",
"J. c #7B7D7B",
"K. c #860E0F",
"L. c #88510C",
"P. c #A85816",
"I. c #866213",
"U. c #934A39",
"Y. c #8A682C",
"T. c #D9691C",
"R. c #856C44",
"E. c #90784D",
"W. c #8B7D55",
"Q. c #886B67",
"!. c #92706C",
"~. c #847B76",
"^. c #AC6760",
"/. c #77817A",
"(. c #7C817D",
"). c #B68F35",
"_. c #AFA32E",
"`. c #E3A13A",
"'. c #968651",
"]. c #B88C45",
"[. c #AA8B54",
"{. c #B79156",
"}. c #82827D",
"|. c #8B877E",
" X c #95927C",
".X c #B79569",
"XX c #BBA774",
"oX c #C88D4D",
"OX c #C9974B",
"+X c #D69A44",
"@X c #C89955",
"#X c #D1A450",
"$X c #E7A749",
"%X c #C29768",
"&X c #CDAE6E",
"*X c #777681",
"=X c #7C7E81",
"-X c #817E82",
";X c #7D8283",
":X c #7E818B",
">X c #838482",
",X c #868984",
"<X c #868887",
"1X c #8C8B86",
"2X c #84858A",
"3X c #8A8B8B",
"4X c #938C86",
"5X c #8C928F",
"6X c #93938D",
"7X c #9A998A",
"8X c #888991",
"9X c #8E9292",
"0X c #939594",
"qX c #969697",
"wX c #9B9B95",
"eX c #959A9C",
"rX c #9B9D9C",
"tX c #AC9A84",
"yX c #A29D94",
"uX c #9FA59C",
"iX c #AFA394",
"pX c #A3A39C",
"aX c #A9A59A",
"sX c #9C9DA2",
"dX c #9EA2A3",
"fX c #A5A5A3",
"gX c #A4A9A3",
"hX c #AAABA4",
"jX c #A6A4A8",
"kX c #A6AAAA",
"lX c #ACACAA",
"zX c #B1ADAB",
"xX c #AAB0AF",
"cX c #B2B2AB",
"vX c #ACB1B4",
"bX c #B5B7B8",
"nX c #C9B598",
"mX c #BEC1BC",
"MX c #AFB2C2",
"NX c #B9BDC2",
"BX c #BDC2C9",
"VX c #C4C6C9",
/* pixels */
"c.c.H.V.G.x.=X:XZ.2X;X;Xx.;X;XJ.J.i.M.6Xl.*.,.v.qXl.p.l.v.N.i.v.N.F.l.*.l.i.N.7.S.N.F.>X>XJ.>X>X~.-XN.H.v.v.c.x.2X-XJ.V.2X2XG.5X",
"2XqXV.C.G.;X#.,.3.,.A.u t 1.2.! G.G.H.v.i.*.*.3.i.*.M.<.A.F.j.~.A.! s M J.v.A.N.F.J.J.,X;Xl.v.F.N.J.J.3.h f V f <.3.V.x.C.1.>XG.",
"h.8X:XA.g.*.2.+.*.+.j.2.#.3.z., v.i.v.A.v.*.i.N.A.J.i.<.~.N.J.1XQ.8.Q.!.!.!.4.Q.8.N.F.>XG.*.*.=.>XA.>Xv.. O . + ,.i.>XV.c.g.;X2X",
"h.l.v.h.x.j.,.+.,.X.A.,.j.c.x.<.:.,.h.x.*.! *.3.,.$.i.M.b.S.}.>X~.n.N.B.~.B.b.|.~.l.4X>XA.N.A.3XG.J.>Xz.j j B f ^ N.N.c.A.C.8X3X",
"*Xv.G.l.3.J.,.+.3.#.v.y ,.h.0.<.l.l.A.2XN.3.l.A.F.N.j.!.!.!.8.4.>Xl.,.i.,.i.3.+.i.i.N.>XC.N.G.4XJ.3XJ.>X. O   o M.l.v.v.>XG.sXeX",
"2XG.x.x.j.J.,.>.3.,.N.7 #.#.3.u A.F.J.3XA.,.l.7.7.<.v.4.B C k v >Xi.i.7.l.<.,.,.j.<.}.B.}.N.A.>XN.>XJ.x.B B b k &.A.>X:XG.v.J.>X",
"3Xl.G.i.N.D.X.u O.w l.t 5 w #.u N.M.9XF.F.k.k.F.N.j.J.=X}.J.F.}.>XF.v.j.M.k.i.j.v.i.6X7.A.i.H.>XJ.2X=XH..     X D.J.A.0Xl.#.A.>X",
"t   o                                               $ 3       & t                                             . .   .     .   o ",
"F s #.u 3.j.s 3.O.0.*.j.:.D.h.2.M.J.;XC.A.0.j.M.l.g.L.t.5.A.h.c.V.3.X.j.+.:.,.X.i.M.F.i.i.h.<.j./ v.3.h.,.M ! 1.| *Xu *.! #.,.R ",
"R :.i.s ,.J.#.j.i.,.l.i.<.i.3.g.l.,...t p q r t 7 s z i e X.S t r s s N.A.M.v.! N.* = & % & = D.` 1.3.,.v.i.7.>XA.=X@.*.S 0.#.R ",
"n :.:.t &.l.O.i.h.,.3.X.k.<.<.g.t A.o = % X # # o o # o X o o + % % #.k.v.v.M.*.j.#.% % % % @.M.` wX- v #.i.i.S.| H.@.,.s :.=.W ",
"T O.&.s *.,.X.<.g.D.3.S t.*.<.i : v.l.H.l.+.i.<.i.0.G E q.i.k.<.j.S +.,.M.l.j.X.,.! X.l.i.O.X.v.` ~ - . n M A.<.i C.+.o.S +.#.W ",
"T #.&.u ,.i.! i.g.O.,.S y.=.u 4 ! v.3.G.j.=.j.%.t.j.T T y.2.,.:.h.X.O.,.v.j.c.g.,.X.X.h.l.#.X.l.` s ! L - 5.#.N.u A.S ,.i ! #.' ",
"E *.*.S *.0.X.l.*.+.z.,.' e N.s >.v.p.M.3.*.0.s l.i.W A y.l.g.k.h.S O.*.h.j.c.j.,.s +.M.M.O.X.N.} X.8 1 Y.O ~ i D.A.+.+.! #.#.) ",
"T ! #.s #.:.:.l.&.S J.,.n a.M.S *.l.5.B.3.O.3.M.l.i.G T p.M.k.j.h.S X.#.0.c.l.,.<.! +.l.l.*.X.N.} +.w 7 T L.< $.*.c.O.! ! X.#.{ ",
"E #.0. .*.C.#.k.<.g.z.u n >.M.S &.v.s.}.0.,.i.<.l.l.W #.9 M.3.N.C.! #.&.h.j.g.3.,.S *.v.M.*.X.v.} +.X.8 5 n w.n *.A.+.*.! #.! e.",
"=.:.&. .3.V.O.;X<.#.@.5 M i.C.X.9.l.p.B.:.,.i.j.j.i.( #.0 0.0.N.M.O.+.,.l.j.l.:.<.X.:.k.v.,.X.l.r.O.+.F 7 8 ^ =.i.J.X.=.! 0.! ( ",
"+.#.*.s :.A.X.J.i.X.8 u y l.M.! *.h.i.H.v.<.l.3.l.i.E *.8 q i.v.A.! #.*.v.z.c.3.<.X.-.M.A.,.@.w.q.@.+.K G w y +.i.N.s *.! ,.,.^ ",
"+.#.<.u #.C.O.D.! 7 p 0.M v.c.p u z.y i u 8 i.M.i.<.E +.0 o ,.l.v.X.O.#.i.3.l.! ,.X.,.v.k.*.2 ' q.O.+.K H 3.8 8 #.b.~ +.! 3.*.+.",
"-.S 0.u #.C.+.-., 7 J.l.M v./.S J.j.i.}.M.0.3.i.,.i.+.#.>     0.l.S X.*.i.<.0.O.,.X.-.Z.;X^ e ( q.X.O.H Y ,.l.q w F.e #.! #.+.^ ",
"X.&.3.i :.c.! &.S &.2Xl.M <.D.q q l.w w t 4 i.,.,.i.^ +.( j.v.l.v.X.! +.,.0.l.*.i.X.:.M.h.2 T n u.X.! H Y =.H.3.+.~.! :.! *.,.X.",
"#.0.&.s 2.;X^ *.! *.H.l.y 3.A.i G.0.i.N.D.*.& t 8 , %   * : : = : @.O.#.,.i.D.*.l.O.:.a.q.n e q.> O.! D Y A.N.v.O.1X#.3.X.c.,.! ",
"#.,.,.i ,.v.+.&.S j.H.M.i h.C.S D.<.c.A.-.>XqX2X}.3.,.i.>.A.e.m m ! O.*.l.<.D.,.k.X.&.H.l.^ Q F.t.! O.H U w.D.v.#.rX! 3.! h.,.^ ",
"O.#.*.u 3.z.+.@.X.,.v.l.u v.D.s z.i.v.M.i hXlXgX,X,.t.i.3.i.k.K L.o.+.#.i.0.M.! h.! -.v.l.@.Q m.t.O.O.P P ' F.k.+.eX! <.! <.&.X.",
"&.s s u ,.v.+.+.X.X.BXgXu v.A.O.eX<.2XbXX.i.l.0.*.3X7X0Xi.i.m._ L. .+.+.0.i.0.O.v.s -.l.i.+.o.>X<.! X.) ) q.D.0.O.~.+.,.s ! ! +.",
"&.w w u ,.N.#.#.! ! O.pXgXv.C.NXVXrXrXBXlXj.i u #.eXyX! g.l.D._ L. .X.#.<.i.i.+.i.S -.v.3.+.@.(.( ! O.[ { } s.:.+.rXs +.! t t +.",
"#.3.#.y *.v.&.*.S ! X.*.=.H.k.g.z.! i.V.<.3.9 < +.#.<.s k.l.C.I x s X.#.3.3.i.*.l.S &.v.l.&. .A.( X.X._ W Y.` 3.X.}.~ :.s *.A.^ ",
"&.3.*.u ,.A.#.&.! ! ! *.,.+.&.v.v.,.M.C.N.7 h V ,.i.#.S h.a.A.K H s X.+.<.0.k.&.l.s &.Z.3.&.S C.] S X.I D L { k.! B.M *.! +.c.O.",
"&.h.,.u ,.H.#.&.X.! X.,.,.#.3.l.      ;XN.N.h V l.i.t.S v.v.c.H J  .X.#.0.j.i.3.k.i X.v.h.,.X.v.} X. .I.J } B.N.+.B.+.<.s *.j.*.",
"X.#.#.s &.c.&.&.i ! O.*.>.:.N c.K.k w J.M.3.&.,.,.i.i.u h.c.C.P H i X.*.8 7 i.0.i.s #.l.0.*.S v.{ t S I ' e.B.,.+.n.n #.y #.,.! ",
"+.,.#.u #.C.#.#.O.,.5XJ.,.A.0 c.; b t J.@.# % o i i.i.S M.l.z._ L.i ! 3.+.X.O.X.l.i &.v.3.&.S C.' S S _ t.a.u.+.o.1XM X.! &.h.O.",
"O.t s u *.A.&.#.O.M.H.b.j.j.q H.  k u (.+.s +.w i i.*.S dXqXeXP.T.kX! ,.+.S O.+.j.S vXfXwX|.X.A.w.i uX].OXXX|.7XS M.u #.s s X.X.",
",.7 4 u *.v.,.:.& # & + j.A.C >Xj k u C.O.! h.&.! i.v.h.M.M.i.) [ G.! ,.. . . . N.i.J.x.J.:.D.J.R.<.(.) e.(.0Xb.j.}.! #.O.8 7 +.",
",.3.i.s 0.G.j.,.+.i #.N.F.5Xs 3X& b u 3XX.+.3.3.! v.N.D.J.M.D.} r.J.+.D.M v./ l.J.l.3X(.,Xl.>X;XR.D.H.[ u.v.1X~.h.(.w s +.z.z.&.",
"0.c.k.s j.h.3.0.#.#.#.l.M.,X>X,X. d u ,XO.+.v.A.S F.F.X.& & % @ & 7 O.l.y.G.( F.F.X.o o o X ! J.W.! # X X o O X X.0Xi #.M C.z.*.",
"i.D.,.s j.(.i.0.X.#.#.l.N.      5 d i 5X@.+.J.A.! M.F.X.s | q z Z S O.1Xy.l.t.D.F.X.8 u p u ! eXW.! u 1 n ! N ! X.0X8 X.+.=XA.$.",
"*.:.j.! i.N.3.,.pX,X#.A.c.        $ s H.X.O.(.J.s b.i.X.eXMXkXT._.lX&.N.+.t.i.l.v.! dXlX,XhX! (.W.! bX.X[. XtXwXX.,Xu #.~ p.J.+.",
"*.j.3.u 3.3.i.*.0X}.3XA.2.j g K.j B u G.O.O.M.F.S l.l.kXrXxXxXT._.fXX.N.      }.a.6XrXxXeXwXuXM.W.F.rX&X%X XtXiXNXH.8 *.$.7.c.X.",
"3.p s o.j.v.h.N.}.D.V.N.0.i i i i V S j.O.X.F.D.! i.v.X.:.3.z.[ *.v.i.l.#.^ ^ j.l.wX6X5X,XgX6XM.'.gXlXoX[.yXiXfXcX2Xt *.$.M s X.",
":.= = S 3.X.l.H.D.h.j.l.(.D.j.;XJ.>XD.l.O.S j.i.S <.v.G.h.c.@.U v.N.k.N.#.n.i.l.j.F.N.J.<.A.l.A.B.i.C.Y.[ W W.i.l.|.s &./ 9 7 O.",
":.@.@.s sXqXA.M.j.z.h.i.G.D.0.v.M.l.M.l.+.S N.i.s <.M.v.0.k.#.U l.0.i.i.,.p.>.t ! v.J.A.M.l.+.3.a.l.g.Y.) %.s.=.%.b.|.|.~ $.j.+.",
"@.o.3.S A.=XM.h.t  .*.t J.7 X.#.X.! O.M.i s l.N.u *.i.h.3.i.+.[ <.l.7.l.i.6.>.X.! #.#.*.+.#.:.c.l.,.,.I.G >.s.=.i.b.6.p.~ >.g.+.",
"+.3.,.i H.A.C.z.M.! #.j.A.u &.l.i.v.q A.X.i v.v.i =.j.l.0.j.*.u.i.j.j.<.<.i.=.<.,.! l.&.,.s #.8 w 5 , 2 > & 2 # ; B.i.v.M 6.x.X.",
"+.+.3.@.G.:.k.g.N.M.F.3.3.i.&.l.M.+.u v.S v ~ ~ u i.k.N.g.l.i.j.j.i.l.k.j.i.<.i.i.w & # + X X j.<.v.l.[ ( ( y.h.N.v.3.l.~ 7.3.+.",
"#.#.3.X.A.,.A.l.z.,.v.*.v.3.*.k.v.3.p v.O.! l.v.i i.v.% % % % % % # +.k.N.<.i.i.j.% & % % # % i.i..   .     . .     ,.<.! *.l.@.",
"+.! i ! A.v.v.M.c.,.*.#.A.u 0.l.v.l.t D.@.n M ~ S <.M.! % % % # % s &.&.,.*.*.*.,.s % % % # i 3.i.!   o z F o o l j.*.v.S ! X.+.",
"o.o.:.S v.3.l.3.j.*.M.,.,.<.+.N.M.,.t i.O.! v.C.u <.M.! h.,.<.#.i.s % % % % % % * = X.,.+.u u i.0.O.@ +X`.8 8 @X+X3.*.N.X.2.-.O.",
"o.X.&.s c.j.c.C.l.,.,.i.N.u l.v.l.i.u l.O.9 9 k y ,.N.s *.,.K W 7.# & $ % o # * @ % 8 3.X.X.w i.3.! Y.+X, , @X+XOXf.*.M.s c.g.X.",
"#.s a i G.j.A.M.z.s h.<.s t *.#.i.+.u i.X.! D.M.s 0.l.i 3.*.e.l.5.F.t.i.M.i.i.7.s.S ,.+.A.M y <.l.X./ s i E w.' p c.*.F.#.s O.#.",
"#.S t 3.A.c.v.A.C.o.c.% ! @.:.i.#.l.,.l.O.s M.l.t >.N.S l.C.d.d.x /.B.N.N.i.a.j.K E c.J.=X! y =.j.! +.i.,.*.l.l.G.c.<.i.X.s X.#.",
"#.M u >.b.Q.~.l.V.X.j.7.S z.&.o v.l.v.l.X.^.U.U.S ,.v.s z.M.e.D.} N.[ a.D.=.F.N.r.3.H.c.A.! y *.l.X.0.l.v.i.N.i.,.n s.Q.0.X.O.+.",
"@.S t 3.. ,.*.  l.j.A.>.v.j.h.h.M.l.l.v.+.u X.v.s =.M.s c.c.m.l.s.i.} N.,.i a.>.y.' j.F.A.1Xy >.v.! i.i.N.j.>Xl.h.8 ,.. X.i ! +.",
"#.s t #.b B c N A.@ b.* 0./ s l.l.j.M.i.X.>XJ.k.i 3.h.i j.v.0.l.<.:.' C.3.j.<.i.p.+.C.6XwX4XbXi.v.! ,.l.l.=.A.l.v.B B C <.u O.X.",
"#.s u *.w     o.k.Q c.M ,.` s l.l.+.A.l.X.jXwXgXu &.i.p C.,.#.,.#.i.( x.0.l.p.2.i.0XrXqXnX6.<.=.*.S <.3.N.l.N.j.,.    o.i.u O.+.",
"#.! u ,.j.x.M.h.M.=.C.! ,.( u ,.3.*.j.k.c.bXbXjXs *.i.a dXxXbXbXvXvX%XgXgXlXfXcXwXlXVXH.q.<.R j.j.i 3.*.i.=.X.0.v.N.*.j.v.S +.#.",
"#.,.. s c.l.A.l.l.O.h.s ,.R s j.v.i.l.l.3.,.<.v.mX#.l.bXkXkXbXNXvXfXnXjXgXcXfXbXiXs.A.' z { 5.,.M.! k.i.A.j.l.v.v.A.3.c.s % 3X+.",
"*.h.3.8 8 7 8 4 8 5 5 : 4 8 7 4 7 , 7 4 5 5 5 4 4 5 , 5 7 4 7 5 5 8 v 8 4 4 4 7 9 7 8 8 5 & # = 7 8 < w 5 7 5 7 8 7 7 8 #.3.3X#.",
"  zXzXcXzXhXlXrXyXwXgXhXXXT.zXhXgXzXhXgXpXlXhXaXpXpXgXxXgXgXlXkXfXkX%XtXlXwXhXgX4XyXlXbX7X6X6XpXgXxX.XP.).aXcX6XlXbXqXbXVXbXVX  ",
"v.F.        &.,.0.0.g.j.,.' i.j.c.j.l.v.j.c.j.i.l.3.v.g.z.3.j.0.g.i.q.a.k.7.i.l.6.*.c.g.3.,.*.,.l.x.y.t.=.i.N.l.H.,.        3.p.",
"j.H.n.N.p.n.O.&.K L % o - I L # o _ ' l . % L ' l.0.i.z.v.3.l.i.c.,.b.j.N.i.l.l.s.oXOX5 4 '.#Xn 8 , { @X% % E.].w.D.l.p.F.<.3.l.",
"x.A.: ;.= g.#.M.8X7 = l $X$X4 5 [.OX' % & $X&XA.v.&.*.+.*.i *.+.,.t $.! #.X.#.3.a.~.< 5 Y.[.m w 0 #X'.7 # E.OXR.M.l.M.= &.4 i.A.",
":.(.f 8.g 4.O.l.,.j.> $XOX; , @X{.'.; * +X&XZ.l.&.o                           # p.i.3X]._ R = w oX]., = ` ].R.N.v.+.b.d ` f k.i.",
",.>XF.D.l.|.X.# j.M.,.i.3.v.N.A.c.i.3.l.M.J.G.<.o +.3X;X3.G.}.0X1XlX>X6Xl.D.,.. *.l.N.F.l.i.<.6.J.A.C.l.m.l.A.N.+ v.F.N.6XN.i.*.",
"e y t s S t w #.+.~ s ~ n =.! ! ! 5 s w w t s 7 . , 5 < , * > , # X , , & , > 4 . , 5 7 7 4 7 4 w 8 M e e w t t t s s ! ! ! M +."
};
