/* XPM */
static char *_4f7a263e0714f61dd70d4179ea189e0LymsHgBkOTBqrH0I[] = {
/* columns rows colors chars-per-pixel */
"64 64 77 1 ",
"  c #202020",
". c gray15",
"X c gray16",
"o c gray18",
"O c #373737",
"+ c #393939",
"@ c #7B0000",
"# c #7F0000",
"$ c #4D2F2F",
"% c #5E3737",
"& c #603737",
"* c #623939",
"= c #663D3D",
"- c #6A3D3D",
"; c #414141",
": c gray27",
"> c #494949",
", c #4E4E4E",
"< c gray32",
"1 c #565656",
"2 c #585858",
"3 c gray36",
"4 c #6A4747",
"5 c #704343",
"6 c #7C4F4F",
"7 c #626262",
"8 c #646464",
"9 c #6A6A6A",
"0 c #6C6C6C",
"q c #727272",
"w c #767676",
"e c #7B7B7B",
"r c gray49",
"t c #830000",
"y c #8B0000",
"u c #8F0000",
"i c #950000",
"p c #9C0000",
"a c #A20000",
"s c #A40000",
"d c #A80000",
"f c #AC0000",
"g c #B00000",
"h c #B40000",
"j c #BD0000",
"k c #C20000",
"l c #C70000",
"z c #D70000",
"x c #805353",
"c c #818181",
"v c gray53",
"b c #898989",
"n c #8D8D8D",
"m c gray57",
"M c gray59",
"N c #9A9A9A",
"B c #9D9D9D",
"V c #A2A2A2",
"C c #A4A4A4",
"Z c #AAAAAA",
"A c #ACACAC",
"S c gray69",
"D c #B4B4B4",
"F c gray72",
"G c #BCBCBC",
"H c #C0C0C0",
"J c #C5C5C5",
"K c gray79",
"L c #CDCDCD",
"P c gray82",
"I c #D7D7D7",
"U c gray85",
"Y c gray87",
"T c #E2E2E2",
"R c #E6E6E6",
"E c #EAEAEA",
"W c #EEEEEE",
/* pixels */
"                                                                ",
" XXXXXXXXXXXXXXXXXXXXXXXXXXXXXXXXXXXXXXXXXXXXXXXXXXXXXXXXXXXXXX.",
" X>9999999999999999990qqqqqqqqqqqqqqqqqqqqqqqqqqqqq999999999999.",
" X>MMMnceeeewq992<<,>>,<<<8900eeeeecvMMMNCVCSSSFJHJKPIIYYTREWWA.",
" X>MMnDVeeewnc32<9c8>><<<288ewweeceMMMNBBBZAASDDGJKPPUUUTREWWYC.",
" X>Mn0MDeew9nb82<0ee,,<<2299qeeeevcvmBNBZZAASDDGJJLIIUYUTWWRRTC.",
" X>nn39ceeq297<<,,31,<<2990qeeeeeenMMNBBCZSSSFHHJLPIIUYFFPWWRUC.",
" X>vceeeeww0222,,>>>,<223v0<>>>>>>>>>>>>>>>>>>><8rGUUYK0MFETYYV.",
" X>eeeeeew9892<<<>,><<<39bZceeeeewqqerrvbbbmmmmcnSIYUUK30STTYUV.",
" X>veeee0992<<<>>><<<3999wBVeeeenMNNBBCASSDGFJKAVKIIYTTIPRYYUUB.",
" X>eeeeew982<,,>>>,<<<9wwqcAMevvMMNNBVCASSDHJJFBKIUYYTWWRRTYUUN.",
" X>eeeeq999<<<,>>,<<<8900eecSMvnNNBVCCAASDDFHGVGUYUTWWWETTUYIPN.",
" X>eew96h53<<,,,<<<3890qeeeenAnMBBNCAAADDDGJGVSIUUTYRWEEYPUIIPN.",
" X>ewwxhhg=,,>>,,0339qqeeeeevBZMMBBVVADSFJJJSSIIYYYREWREPMUIKLB.",
" X>ee6hhfss%>>><<B,89qwwcBneMMBBBBBAAASDFFJSVKYUUFDPWWYUAwIPIKN.",
" X>wxhhfssap%>,<2Z>,9qeq0nBcnmNCCAAAADDDGJFCKIIUH9MDRTTDrqILJJM.",
" X>qhhgssappp,<<<Z1>2eew29cvMMNBCZCSSSGHJGVGIUUYF79DEEKncqPKJFM.",
" X>qq32<<,>>><<22Z91>2eeecvMMNBBBCZASDFGKCSPUUYRYDHYYPMCbqIJKJM.",
" X>9882<<<>>><223Z99,,qecvnNNNBAZCCSDDJHASIIUYYREWRTUNmPbqLJHFM.",
" X>9jhhsapppa<399Zeeq,,eeMMMNBBCASACDGJAVJIUUYTREWWRDnLIbqJGGDn.",
" X>3-hdspppa=228wZeeeq,2vMMBBBCZAADAAHGCJIIUYTYWWRTScGUIbqJHDDS.",
" X>9<-spppp=<<890Zeeeeq,9NNNVCZASSDDZZVHLIYUYWWWTTKMAIILbqHGFSS.",
" X><<,&ppp=<8899eZeeeee7,eNBVZVCCDFFGAAPIUHDPREWWPMCIIPKbqFDSSA.",
" X><,,>*a=<<23wwwZeeevvn2<mVZM0MCDJJKLIIIH9MDWWRTAvLULLJbqDDAAA.",
" X><<>><<<28890weZeecmnNn19mZN39BFFJKPLUYF79DWEYDnKIPPLJbqDSDAB.",
" X>,,,80qqqqqq0eeZeevMMNBv3cAABMSGJJKIIUUYFFYERGbAIILJJJbqDSAAA.",
" X>,>;90990e0qweeZccvmNNBCr3NSSGJJJIPIIYYYRWWEIMZYIPKLHDbqAAABV.",
" X>>:;89989eqweeeZcMMMNBVBAc0VDFGKKPPUUUTEWWEPMmPIIIJJJGbqSZCVBo",
" X>>;:99999eeeeeeCcvNBNBAAAZqqAHJJKIIUYYTEWEUAnLIILJJGFDbqAAZBN+",
" X>>;:5hhh5eweeeeCMMMMVVVZDSV0vJJPPUHDPTWEWWFcGUPPKJGFDSbqZVCBm+",
" X>,;:ihlzhceeeecCnBNNBVAAADDM9VLLIH9MDRWWRKMCIIIPKJJDSSvqZCBNN+",
" X><:,tahkhveeeevCMNBBVCAADDDGc0LIIF79DWWTTNeKIIKJJFGFDAvqVBNNn+",
" X>,,,@upppveeeMnCNBBBAZASFHGFVSIIUUFGYEWWTHnNKLKJHFDSSAv8VNNNn+",
" X><,,$#ty4bevcvMCNBCCAASDDHJCCIUIUTTTWWTTYUAMZKKHHDDAAAv8BBMMv+",
" X>22,1::7cbeenMMCBBZZSADFFGAVJIUYURWWERTYUUIBMAJGHDSSACv8NNMMc+",
" X>21,qeewnbcvnMNCBCZASSSGJAVGIIIUTTYWEEYYUIIJMMFDDDAAZZv8NNnnc+",
" X>32,,,,,,9nnNMBCVVAASDDGDVSLIIYYYEWWTRYUUPLKFMMASAAAVBv8MMMve+",
" X>89888880cnMNNBCAAASDFDGVAPUDDPRWWEETYUICCSJJCMBSDZCVBv8Mneee+",
" X>qqeeeeecvMMNNCVCASSDJJCCIPG9MDTEWRUPYIS0MCJHDBMBAAABNv3vccee+",
" X>qweeeecnMMMBBVBAAADDGZVHPUF79DEEEUN0KUA39BFFDSNMCBBBNq2Mccee+",
" X>qeeeeevnnBBNCANADDDFAVGIIIUFFIWWYZc<wJKSVFJGSSZVMmBNMq2veeee+",
" X>eeeeecvMMMNCVCNSSFJFVSPIIYYTREWTDNKc2cJJJGDDDAAVVnmBM81eeeee+",
" X>weeceMMMNBBBZANSDDFVAPPUUUTREWEGmKYLw2mJFFDSSAZVBZnNn8,eeeeq+",
" X>eeevcvmBNBZZAANDDGCCLIIUYUTWWWJmSYIIH72SJDSSACCVBNZnv8,eeewq+",
" X>eeeenMMNBBCZSSNFHZVJPIIUYYREEPVSIUIPKZ27DDSSAZVBNNVBe8,eeee9+",
" X>eecMnMNBBVAAASNFAVHIIUUYTTEWYVmPYIPKKHv20ASAZCVNNNMZm0<ee000+",
" X>evcvMNNVZCAAADNDVAKIDDPUEWWRZmPUIIIKKHGe<eAZCBcbvMMMSm8eqeq3+",
" X>eenMNNBBCASSDGNVAKLG9MDTTEEDbKUUIPLKJGGC7<rCBb9cbneeMCwew999+",
" X>vvMCNNVVCASSDHNVLIID79DTWWFmSYUIILJHHDDDV93BBb39wvveenc09922+",
" X>vv0MCVCCAASDDFNGLLUUFFYWWKmSUYUPPJJGFDSAAb22BNvvnceeewqw9832+",
" X>nv39mCAAADDDGJJJIIUUTYRWIVbPUIIILJHJGSDSCVe>qMMvceeeeeqq08<<+",
" X>MMbbBVVADSFJJJPIIIYYYREYVmPUUIPLKJGDDDAAACm2,wveeeeeeq0933<<+",
" X>MNBBBAAASDFFJLLIYUUREERZcKYUIILKHJDDSAACVBBn,,wcceewqq992<<,+",
" X>BBBAAAADDDGJJKIIIUYTEWGbSYUUPLKKHFDSSACVVNNM0,3eeeewecw3<<,>+",
" X>NBNCVSSSVBAJIIDDPYTEEEmenNNNNMMMMvvvvvvvvvvvvr8eeeew9ec2<<<,+",
" X>BN0MCASZ0nBJPF9MDRTEWRTYYIIIKJJHDDDAAAAVBNNnvveeeeq7,72<<,>>+",
" X>BV39NDDZ79mLID79DREWEETUUULPLJFFDSAAABBBBMMnceeeewwq2<<<,>>>+",
" X>BCVCSDGGSSJLIUFFIREWRYYYIIPPJJJGSSACCBBNMMnceeeeew9893<<<>>,+",
" X>CZAADDHHKKPIIUYTYWWTTTUUIIJJJGDDDAAACNBBMMvveeeeq993<<<>,>>,+",
" X;222222222222222222222222222222222222222222222222222222222222O",
" X............................................................. ",
" X                                                              ",
" X                                                              ",
"                                                                "
};
