/* XPM */
static char *af9d0fa49eb74ba6c669ebe5be13dbb3ER4yHS9xnZne4Gjv[] = {
/* columns rows colors chars-per-pixel */
"64 64 130 2 ",
"   c None",
".  c gray10",
"X  c gray12",
"o  c #202020",
"O  c gray13",
"+  c #252525",
"@  c gray15",
"#  c #272727",
"$  c gray16",
"%  c #2A2A2A",
"&  c gray17",
"*  c gray18",
"=  c #2F2F2F",
"-  c #313131",
";  c gray20",
":  c #343434",
">  c #353535",
",  c #373737",
"<  c gray22",
"1  c #393939",
"2  c #3A3A3A",
"3  c gray23",
"4  c #3C3C3C",
"5  c #3E3E3E",
"6  c #3F3F3F",
"7  c #7B0000",
"8  c #7F0000",
"9  c #4D2F2F",
"0  c #5E3737",
"q  c #603737",
"w  c #623939",
"e  c #663D3D",
"r  c #6A3D3D",
"t  c gray25",
"y  c #414141",
"u  c gray26",
"i  c #444444",
"p  c gray27",
"a  c #494949",
"s  c #4B4B4B",
"d  c #4C4C4C",
"f  c gray30",
"g  c #4E4E4E",
"h  c gray31",
"j  c #505050",
"k  c #515151",
"l  c gray32",
"z  c #565656",
"x  c gray34",
"c  c #585858",
"v  c gray35",
"b  c gray36",
"n  c gray37",
"m  c #5F5F5F",
"M  c #6A4747",
"N  c #704343",
"B  c #7C4F4F",
"V  c #626262",
"C  c gray39",
"Z  c #646464",
"A  c #656565",
"S  c DimGray",
"D  c #6A6A6A",
"F  c #6C6C6C",
"G  c #717171",
"H  c #727272",
"J  c gray45",
"K  c #747474",
"L  c #767676",
"P  c #777777",
"I  c #797979",
"U  c #7B7B7B",
"Y  c #7C7C7C",
"T  c #7E7E7E",
"R  c #830000",
"E  c #8B0000",
"W  c #8F0000",
"Q  c #950000",
"!  c #9C0000",
"~  c #A20000",
"^  c #A40000",
"/  c #A80000",
"(  c #AC0000",
")  c #B00000",
"_  c #B40000",
"`  c #BD0000",
"'  c #C20000",
"]  c #C70000",
"[  c #D70000",
"{  c #805353",
"}  c #818181",
"|  c #848484",
" . c gray52",
".. c #868686",
"X. c gray53",
"o. c #898989",
"O. c gray54",
"+. c #8D8D8D",
"@. c gray57",
"#. c #939393",
"$. c #959595",
"%. c gray59",
"&. c #9A9A9A",
"*. c #9D9D9D",
"=. c #9F9F9F",
"-. c #A0A0A0",
";. c #A2A2A2",
":. c gray64",
">. c #A4A4A4",
",. c #A5A5A5",
"<. c #AAAAAA",
"1. c #ACACAC",
"2. c gray69",
"3. c #B2B2B2",
"4. c #B4B4B4",
"5. c gray72",
"6. c #BCBCBC",
"7. c gray75",
"8. c #C0C0C0",
"9. c #C5C5C5",
"0. c gray79",
"q. c #CDCDCD",
"w. c gray82",
"e. c #D7D7D7",
"r. c gray85",
"t. c gray87",
"y. c #E2E2E2",
"u. c #E6E6E6",
"i. c #EAEAEA",
"p. c #EEEEEE",
/* pixels */
"o o o o o o o o o o o o o o o o o o o o o o o o o o o o o o o o o o o o o o o o o o o o o o o o o o o o o o o o o o o o o o o o ",
"o $ $ $ $ $ $ $ $ $ $ $ $ $ $ $ $ $ $ $ $ $ $ $ $ $ $ $ $ $ $ $ $ $ $ $ $ $ $ $ $ $ $ $ $ $ $ $ $ $ $ $ $ $ $ $ $ $ $ $ $ $ $ @ ",
"o $ a D D D D D D D D D D D D D D D D D D F H H H H H H H H H H H H H H H H H H H H H H H H H H H H H D D D D D D D D D D D D @ ",
"o $ a %.%.%.+.} U U U U L H D D c l l g a a g l l l Z D F F U U U U U } X.%.%.%.&.>.;.>.2.2.2.5.9.8.9.0.w.e.e.t.t.y.u.i.p.p.1.@ ",
"o $ a %.%.+.4.;.U U U L +.} b c l D } Z a a l l l c Z Z U L L U U } U %.%.%.&.=.=.=.<.1.1.2.4.4.6.9.0.w.w.r.r.r.y.u.i.p.p.t.>.@ ",
"o $ a %.+.F %.4.U U L D +.o.Z c l F U U g g l l c c D D H U U U U X.} X.#.=.&.=.<.<.1.1.2.4.4.6.9.9.q.e.e.r.t.r.y.p.p.u.u.y.>.@ ",
"o $ a +.+.b D } U U H c D V l l g > ; = $ = = ; 3 3 4 $ @ = p Z Z Z L T %.&.=.=.>.<.2.2.2.5.8.=.b U U L D z F c c w.p.p.u.r.>.@ ",
"o $ a X.} U U U U L L F c c c g g @ $                                                                             2.i.y.t.t.;.@ ",
"o $ a U U U U U U L D Z D c l l g X @                                                                             +.y.y.t.r.;.@ ",
"o $ a X.U U U U F D D c l l l a p = >                                                                             6.t.t.r.r.=.@ ",
"o $ a U U U U U L D Z c l g g a p $ >                                                                             ;.y.t.r.r.&.@ ",
"o $ a U U U U H D D D l l l g a p > 3                                                                             X.r.t.e.w.&.@ ",
"o $ a U U L D B _ N b l l g g g l g 3                                                                             #.r.e.e.w.&.@ ",
"o $ a U L L { _ _ ) e g g a a g g Z 4                                                                             } r.e.0.q.=.@ ",
"o $ a U U B _ _ ( ^ ^ 0 a a a l l #.>                                                                             p e.w.e.0.&.@ ",
"o $ a L { _ _ ( ^ ^ ~ ! 0 a g l c %.o                                                                             g e.q.9.9.%.@ ",
"o $ a H _ _ ) ^ ^ ~ ! ! ! g l l l =.3                                                                             g w.0.9.5.%.@ ",
"o $ a H H b c l l g a a a l l c c <.D                                                                             H e.9.0.9.%.@ ",
"o $ a D Z Z c l l l a a a l c c b <.D                                                                             H q.9.8.5.%.@ ",
"o $ a D ` _ _ ^ ~ ! ! ! ~ l b D D <.U                                                                             H 9.6.6.4.+.@ ",
"o $ a b r _ / ^ ! ! ! ~ e c c Z L <.U                                                                             H 9.8.4.4.2.@ ",
"o $ a D l r ^ ! ! ! ! e l l Z D F <.U                                                                             H 8.6.5.2.2.@ ",
"o $ a l l g q ! ! ! e l Z Z D D U <.U                                                                             H 5.4.2.2.1.@ ",
"o $ a l g g a w ~ e l l c b L L L <.U                                                                             H 4.4.1.1.1.@ ",
"o $ a l l a a l l l c Z Z D F L U <.U                                                                             H 4.2.4.1.=.@ ",
"o $ a g g g Z F H H H H H H F U U <.U                                                                             H 4.2.1.1.1.@ ",
"o $ a g a y D F D D F U F H L U U <.}                                                                             H 1.1.1.=.;.@ ",
"o $ a a p y Z D D Z D U H L U U U <.}                                                                             H 2.<.>.;.=.= ",
"o $ a a y p D D D D D U U U U U U >.}                                                                             H 1.1.<.=.&.3 ",
"o $ a a y p N _ _ _ N U L U U U U >.%.                                                                            H <.;.>.=.#.3 ",
"o $ a g y p Q _ ] [ _ } U U U U } >.+.                                                                            H <.>.=.&.&.3 ",
"o $ a l p g R ~ _ ' _ X.U U U U X.>.%.                                                                            H ;.=.&.&.+.3 ",
"o $ a g g g 7 W ! ! ! X.U U U %.+.>.&.                                                                            Z ;.&.&.&.+.3 ",
"o $ a l g g 9 8 R E M o.U X.} X.%.>.&.                                                                            Z =.=.%.%.X.3 ",
"o $ a c c g z p p V } o.U U +.%.%.>.=.                                                                            Z &.&.%.%.} 3 ",
"o $ a c z g H U U L +.o.} X.+.%.&.>.=.                                                                            Z &.&.+.+.} 3 ",
"o $ a b c g g g g g g D +.+.&.%.=.>.;.                                                                            Z %.%.%.X.U 3 ",
"o $ a Z D Z Z Z Z Z F } +.%.&.&.=.>.1.                                                                            Z %.+.U U U 3 ",
"o $ a H H U U U U U } X.%.%.&.&.>.;.>.                                                                            b X.} } U U 3 ",
"o $ a H L U U U U } +.%.%.%.=.=.;.=.1.                                                                            c %.} } U U 3 ",
"o $ a H U U U U U X.+.+.=.=.&.>.1.&.1.                                                                            c X.U U U U 3 ",
"o $ a U U U U U } X.%.%.%.&.>.;.>.&.2.                                                                            z U U U U U 3 ",
"o $ a L U U } U %.%.%.&.=.=.=.<.1.&.2.                                                                            g U U U U H 3 ",
"o $ a U U U X.} X.#.=.&.=.<.<.1.1.&.4.                                                                            g U U U L H 3 ",
"o $ a U U U U +.%.%.&.=.=.>.<.2.2.&.5.                                                                            g U U U U D 3 ",
"o $ a U U } %.+.%.&.=.=.;.1.1.1.2.&.5.                                                                            g U U F F F 3 ",
"o $ a U X.} X.%.&.&.;.<.>.1.1.1.4.&.4.                                                                            g U H U H b 3 ",
"o $ a U U +.%.&.&.=.=.>.1.2.2.4.6.&.;.                                                                            l U L D D D 3 ",
"o $ a X.X.%.>.&.&.;.;.>.1.2.2.4.8.&.;.                                                                            a F D D c c 3 ",
"o $ a X.X.F %.>.;.>.>.1.1.2.4.4.2.X.6.                                                                            y L D Z b c 3 ",
"o $ a +.X.b D #.>.1.1.1.4.4.4.6.6.>.6.                                                                            4 H F Z l l 3 ",
"o $ a %.%.o.o.=.;.;.1.4.2.5.9.9.;.U &.                                                                            = Z b b l l 3 ",
"o $ a %.&.=.=.=.1.1.1.2.4.5.5.9.<.g o.                                                                            $ V c l l g 3 ",
"o $ a =.=.=.1.1.1.1.4.4.4.6.9.9.0.Z 2.                                                                            . b l l g a 3 ",
"o $ a &.=.&.>.;.2.2.2.;.=.1.9.e.e.U l                                                                             z c l l l g 3 ",
"o $ a =.&.F %.>.1.2.<.F +.=.9.w.5.D %.4.u.y.i.p.u.y.t.t.e.e.e.0.9.9.8.4.4.4.1.1.1.1.;.=.&.&.X.T T H F H Z b l y V c l l g a a 3 ",
"o $ a =.;.b D &.4.4.<.V D #.q.e.4.V D 4.u.i.p.i.i.y.r.r.r.q.w.q.9.5.5.4.2.1.1.1.=.=.=.=.%.%.+.} U U U U L L H c l l l g a a a 3 ",
"o $ a =.>.;.>.2.4.6.6.2.2.9.q.e.r.5.5.e.u.i.p.u.t.t.t.e.e.w.w.9.9.9.6.2.2.1.>.>.=.=.&.%.%.+.} U U U U U L D Z D b l l l a a g 3 ",
"o $ a >.<.1.1.4.4.8.8.0.0.w.e.e.r.t.y.t.p.p.y.y.y.r.r.e.e.9.9.9.6.4.4.4.1.1.1.>.&.=.=.%.%.X.X.U U U U H D D b l l l a g a a g 3 ",
"o $ y c c c c c c c c c c c c c c c c c c c c c c c c c c c c c c c c c c c c c c c c c c c c c c c c c c c c c c c c c c c c > ",
"o $ @ @ @ @ @ @ @ @ @ @ @ @ @ @ @ @ @ @ @ @ @ @ @ @ @ @ @ @ @ @ @ @ @ @ @ @ @ @ @ @ @ @ @ @ @ @ @ @ @ @ @ @ @ @ @ @ @ @ @ @ @ o ",
"o $ o o o o o o o o o o o o o o o o o o o o o o o o o o o o o o o o o o o o o o o o o o o o o o o o o o o o o o o o o o o o o o ",
"o $ o o o o o o o o o o o o o o o o o o o o o o o o o o o o o o o o o o o o o o o o o o o o o o o o o o o o o o o o o o o o o o ",
"o o o o o o o o o o o o o o o o o o o o o o o o o o o o o o o o o o o o o o o o o o o o o o o o o o o o o o o o o o o o o o o o "
};
