/* XPM */
static char *_6a498a5ac1540f1ccd38ebbe73e0133xagc6gVreIBaZ6Dt[] = {
/* columns rows colors chars-per-pixel */
"64 64 145 2 ",
"   c None",
".  c gray10",
"X  c gray12",
"o  c #202020",
"O  c gray13",
"+  c #252525",
"@  c gray15",
"#  c #272727",
"$  c gray16",
"%  c #2A2A2A",
"&  c gray17",
"*  c gray18",
"=  c #2F2F2F",
"-  c gray19",
";  c #313131",
":  c gray20",
">  c #343434",
",  c #353535",
"<  c #373737",
"1  c gray22",
"2  c #393939",
"3  c #3A3A3A",
"4  c gray23",
"5  c #3C3C3C",
"6  c #3E3E3E",
"7  c #3F3F3F",
"8  c #7B0000",
"9  c #7F0000",
"0  c #4D2F2F",
"q  c #5E3737",
"w  c #603737",
"e  c #623939",
"r  c #663D3D",
"t  c #6A3D3D",
"y  c gray25",
"u  c #414141",
"i  c gray26",
"p  c #444444",
"a  c gray27",
"s  c gray28",
"d  c #494949",
"f  c #4B4B4B",
"g  c #4C4C4C",
"h  c gray30",
"j  c #4E4E4E",
"k  c gray31",
"l  c #505050",
"z  c #515151",
"x  c gray32",
"c  c #535353",
"v  c #565656",
"b  c gray34",
"n  c #585858",
"m  c gray35",
"M  c gray36",
"N  c #5D5D5D",
"B  c gray37",
"V  c #5F5F5F",
"C  c #6A4747",
"Z  c #704343",
"A  c #7C4F4F",
"S  c gray38",
"D  c #626262",
"F  c gray39",
"G  c #646464",
"H  c #656565",
"J  c DimGray",
"K  c #6A6A6A",
"L  c gray42",
"P  c #6C6C6C",
"I  c gray44",
"U  c #717171",
"Y  c #727272",
"T  c gray45",
"R  c #747474",
"E  c #767676",
"W  c #777777",
"Q  c #797979",
"!  c #7B7B7B",
"~  c #7C7C7C",
"^  c gray49",
"/  c #7E7E7E",
"(  c #830000",
")  c #8B0000",
"_  c #8F0000",
"`  c #950000",
"'  c #9C0000",
"]  c #A20000",
"[  c #A40000",
"{  c #A80000",
"}  c #AC0000",
"|  c #B00000",
" . c #B40000",
".. c #BD0000",
"X. c #C20000",
"o. c #C70000",
"O. c #D70000",
"+. c #805353",
"@. c #818181",
"#. c #848484",
"$. c gray52",
"%. c #868686",
"&. c gray53",
"*. c #888888",
"=. c #898989",
"-. c gray54",
";. c #8D8D8D",
":. c gray57",
">. c #939393",
",. c #959595",
"<. c gray59",
"1. c #9A9A9A",
"2. c #9B9B9B",
"3. c #9D9D9D",
"4. c #9F9F9F",
"5. c #A0A0A0",
"6. c #A2A2A2",
"7. c gray64",
"8. c #A4A4A4",
"9. c #A5A5A5",
"0. c #AAAAAA",
"q. c #ACACAC",
"w. c gray69",
"e. c #B2B2B2",
"r. c #B4B4B4",
"t. c gray72",
"y. c #BCBCBC",
"u. c gray75",
"i. c #C0C0C0",
"p. c #C5C5C5",
"a. c gray79",
"s. c gray80",
"d. c #CDCDCD",
"f. c #D0D0D0",
"g. c gray82",
"h. c gray83",
"j. c #D7D7D7",
"k. c gray85",
"l. c gainsboro",
"z. c gray87",
"x. c #DFDFDF",
"c. c #E2E2E2",
"v. c #E6E6E6",
"b. c #EAEAEA",
"n. c #EEEEEE",
/* pixels */
"o o o o o o o o o o o o o o o o o o o o o o o o o o o o o o o o o o o o o o o o o o o o o o o o o o o o o o o o o o o o o o o o ",
"o $ $ $ $ $ $ $ $ $ $ $ $ $ $ $ $ $ $ $ $ $ $ $ $ $ $ $ $ $ $ $ $ $ $ $ $ $ $ $ $ $ $ $ $ $ $ $ $ $ $ $ $ $ $ $ $ $ $ $ $ $ $ @ ",
"o $ d K K K K K K K K K K K K K K K K K K P Y Y Y Y Y Y Y Y Y Y Y Y Y Y Y Y Y Y Y Y Y Y Y Y Y Y Y Y Y K K K K K K K K K K K K @ ",
"o $ d <.<.<.;.@.! ! ! ! E Y K K n x x j d d j x x x G K P P ! ! ! ! ! @.&.<.<.<.1.8.6.8.w.w.w.t.p.i.p.a.g.j.j.z.z.c.v.b.n.n.q.@ ",
"o $ d <.<.;.r.6.! ! ! E ;.@.M n x K @.G d d x x x n G G ! E E ! ! @.! <.<.<.1.3.3.3.0.q.q.w.r.r.y.p.a.g.g.k.k.k.c.v.b.n.n.z.8.@ ",
"o $ d <.;.P <.r.! ! E K ;.=.G n x P ! ! j j x x n n K K Y ! ! ! ! &.@.&.:.3.1.3.0.0.q.q.w.r.r.y.p.p.d.j.j.k.z.k.c.n.n.v.v.c.8.@ ",
"o $ d ;.;.M K @.! ! Y n K D x x j , : = $ = = : 4 4 5 $ @ = a G G G E ^ <.1.3.3.8.0.w.w.w.t.i.3.M ! ! E K v P n n g.n.n.v.k.8.@ ",
"o $ d &.@.! ! ! ! E E P n n n j j @ $ ! ! &.&.;.n x :.6.0.<.P <.8.r.p.p.a.d.j.j.j.i.K <.r.n.n.v.c.q.&.d.k.d.d.p.=.w.b.c.z.z.6.@ ",
"o $ d ! ! ! ! ! ! E K G K n x x j X @ ! @.:.;.1.;.v K :.0.1.M K 3.t.t.p.a.g.d.k.z.t.D K r.n.b.z.r.;.a.j.g.g.d.p.=.;.c.c.z.k.6.@ ",
"o $ d &.! ! ! ! P K K n x x x d a = , ! &.<.<.1.3.&.M @.q.q.3.<.w.y.p.p.a.j.j.k.k.z.t.t.z.b.v.y.=.q.j.j.d.p.p.p.=.y.z.z.k.k.3.@ ",
"o $ d ! ! ! ! ! E K G n x j j d a $ , @.&.:.1.1.3.8.^ M 1.w.w.y.p.p.p.j.g.j.j.z.z.z.v.n.n.b.j.<.0.z.j.g.a.d.i.r.=.6.c.z.k.k.1.@ ",
"o $ d ! ! ! ! Y K K K x x x j d a , 4 <.<.<.1.3.6.3.q.@.P 6.r.t.y.a.a.g.g.k.k.k.c.b.n.n.b.g.<.:.g.j.j.j.p.p.p.y.=.&.k.z.j.g.1.@ ",
"o $ d ! ! E K A  .Z M x x j j j x j 4 &.1.3.1.3.q.q.q.0.Y Y q.i.p.p.a.j.j.k.z.z.c.b.n.b.k.q.;.d.j.j.d.p.p.y.t.r.=.:.k.j.j.g.1.@ ",
"o $ d ! E E +. . .| r j j d d j j G 5 <.<.<.6.6.6.0.r.w.6.P &.p.p.g.g.k.i.r.g.c.n.b.n.n.t.@.y.k.g.g.a.p.y.t.r.w.=.@.k.j.a.d.3.@ ",
"o $ d ! ! A  . .} [ [ q d d d x x :., 3.1.1.3.6.q.q.q.r.r.<.K 6.d.d.j.i.K <.r.v.n.n.v.a.<.8.j.j.j.g.a.p.p.r.w.w.&.a j.g.j.a.1.@ ",
"o $ d E +. . .} [ [ ] ' q d j x n <.o 1.3.3.6.8.q.q.r.r.r.y.@.P d.j.j.t.D K r.n.n.c.c.1.! a.j.j.a.p.p.t.y.t.r.q.&.j j.d.p.p.<.@ ",
"o $ d Y  . .| [ [ ] ' ' ' j x x x 3.4 3.3.3.q.0.q.w.t.i.y.t.6.w.j.j.k.k.t.y.z.b.n.n.c.i.;.1.a.d.a.p.i.t.r.w.w.q.&.j g.a.p.t.<.@ ",
"o $ d Y Y M n x x j d d d x x n n 0.K 3.8.8.q.q.w.r.r.i.p.8.8.j.k.j.k.c.c.c.n.n.c.c.z.k.q.<.0.a.a.i.i.r.r.q.q.q.&.Y j.p.a.p.<.@ ",
"o $ d K G G n x x x d d d x n n M 0.K 3.0.0.w.q.r.t.t.y.q.6.p.j.k.z.k.v.n.n.b.v.c.z.k.k.j.3.<.q.p.y.i.r.w.w.q.8.&.Y d.p.i.t.<.@ ",
"o $ d K .. . .[ ] ' ' ' ] x M K K 0.! 8.0.q.w.w.w.y.p.q.6.y.j.j.j.k.c.c.z.n.b.b.z.z.k.j.j.p.<.<.t.r.r.r.q.q.0.0.&.Y p.y.y.r.;.@ ",
"o $ d M t  .{ [ ' ' ' ] r n n G E 0.! 6.q.q.w.r.r.y.r.6.w.d.j.j.z.z.z.b.n.n.c.v.z.k.k.g.d.a.t.<.<.q.w.q.q.q.6.3.&.Y p.i.r.r.w.@ ",
"o $ d K x t [ ' ' ' ' r x x G K P 0.! q.q.w.r.t.r.y.6.q.g.k.r.r.g.v.n.n.b.b.c.z.k.j.8.8.w.p.p.8.<.3.w.r.0.8.6.3.&.Y i.y.t.w.w.@ ",
"o $ d x x j w ' ' ' r x G G K K ! 0.! q.w.w.r.p.p.8.8.j.g.y.K <.r.c.b.n.v.k.g.z.j.w.P <.8.p.i.r.3.<.3.q.q.q.3.1.&.Y t.r.w.w.q.@ ",
"o $ d x j j d e ] r x x n M E E E 0.! q.q.r.r.y.0.6.i.g.k.t.D K r.b.b.b.k.1.P a.k.q.M K 3.t.t.r.w.1.<.8.3.3.3.1.Y Y r.r.q.q.q.@ ",
"o $ d x x d d x x x n G G K P E ! 0.! r.r.r.t.q.6.y.j.j.j.k.t.t.j.n.n.z.0.@.x E p.a.w.6.t.p.y.w.w.0.6.<.:.3.1.<.Y Y r.w.r.q.3.@ ",
"o $ d j j j G P Y Y Y Y Y Y P ! ! 0.! w.t.p.t.6.w.g.j.j.z.z.c.v.b.n.c.r.1.a.@.n @.p.p.p.y.r.r.r.q.q.6.6.;.:.3.<.G Y r.w.q.q.q.@ ",
"o $ d j d u K P K K P ! P Y E ! ! 0.@.r.r.t.6.q.g.g.k.k.k.c.v.b.n.b.y.:.a.z.d.E n :.p.t.t.r.w.w.q.0.6.3.0.;.1.;.G Y q.q.q.3.6.@ ",
"o $ d d a u G K K G K ! Y E ! ! ! 0.@.r.y.8.8.d.j.j.k.z.k.c.n.n.n.p.:.w.z.j.j.i.D n w.p.r.w.w.q.8.8.6.3.1.0.;.&.G Y w.0.8.6.3.= ",
"o $ d d u a K K K K K ! ! ! ! ! ! 8.@.i.0.6.p.g.j.j.k.z.z.v.b.b.g.6.w.j.k.j.g.a.0.n D r.r.w.w.q.0.6.3.1.1.6.3.! G Y q.q.0.3.1.4 ",
"o $ d d u a Z  . . .Z ! E ! ! ! ! 8.<.q.6.i.j.j.k.k.z.c.c.b.n.z.6.:.g.z.j.g.a.a.i.&.n P q.w.q.0.8.6.1.1.1.<.0.:.K Y 0.6.8.3.:.4 ",
"o $ d j u a `  .o.O. .@.! ! ! ! @.8.;.6.q.a.j.r.r.g.k.b.n.n.v.0.:.g.k.j.j.j.a.a.i.y.! x ! q.0.8.3.@.=.&.<.<.<.w.=.Y 0.8.3.1.1.4 ",
"o $ d x a j ( ]  .X. .&.! ! ! ! &.8.<.q.a.d.y.K <.r.c.c.b.b.r.=.a.k.k.j.g.d.a.p.y.y.8.D x ^ 8.3.=.K @.=.;.! ! <.1.Y 6.3.1.1.;.4 ",
"o $ d j j j 8 _ ' ' ' &.! ! ! <.;.8.1.d.j.j.r.D K r.c.n.n.t.:.w.z.k.j.j.d.p.i.i.r.r.r.6.K M 3.3.=.M K E &.&.! ! ;.G 6.1.1.1.;.4 ",
"o $ d x j j 0 9 ( ) C =.! &.@.&.<.8.1.d.d.k.k.t.t.z.n.n.a.:.w.k.z.k.g.g.p.p.y.t.r.w.q.q.=.n n 3.1.&.&.;.@.! ! ! E G 3.3.<.<.&.4 ",
"o $ d n n j v a a D @.=.! ! ;.<.<.8.3.j.j.k.k.c.z.v.n.j.6.=.g.k.j.j.j.d.p.i.p.y.w.r.w.8.6.! d Y <.<.&.@.! ! ! ! ! G 1.1.<.<.@.4 ",
"o $ d n v j Y ! ! E ;.=.@.&.;.<.1.8.3.j.j.z.z.z.v.b.z.6.:.g.k.k.j.g.d.a.p.y.r.r.r.q.q.q.8.:.n j E &.! ! ! ! ! ! Y G 1.1.;.;.@.4 ",
"o $ d M n j j j j j j K ;.;.1.<.3.8.6.z.k.k.v.b.b.v.0.@.a.z.k.j.j.d.a.i.p.r.r.w.q.q.8.6.3.3.;.j j E @.@.! ! E Y Y G <.<.<.&.! 4 ",
"o $ d G K G G G G G P @.;.<.1.1.3.8.q.y.d.g.j.z.z.w.=.w.z.k.k.g.d.a.a.i.t.r.w.w.q.8.6.6.1.1.<.P j M ! ! Y G D G x G <.;.! ! ! 4 ",
"o $ d Y Y ! ! ! ! ! @.&.<.<.1.1.8.6.8.Y 1.3.6.6.6.Y E ;.1.1.1.1.<.<.<.<.&.&.&.&.&.&.&.&.&.&.M M v u u : a x x a j M &.@.@.! ! 4 ",
"o $ d Y E ! ! ! ! @.;.<.<.<.3.3.6.3.q.                                                                            n <.@.@.! ! 4 ",
"o $ d Y ! ! ! ! ! &.;.;.3.3.1.8.q.1.q.                                                                            n &.! ! ! ! 4 ",
"o $ d ! ! ! ! ! @.&.<.<.<.1.8.6.8.1.w.                                                                            v ! ! ! ! ! 4 ",
"o $ d E ! ! @.! <.<.<.1.3.3.3.0.q.1.w.                                                                            j ! ! ! ! Y 4 ",
"o $ d ! ! ! &.@.&.:.3.1.3.0.0.q.q.1.r.                                                                            j ! ! ! E Y 4 ",
"o $ d ! ! ! ! ;.<.<.1.3.3.8.0.w.w.1.t.                                                                            j ! ! ! ! K 4 ",
"o $ d ! ! @.<.;.<.1.3.3.6.q.q.q.w.1.t.                                                                            j ! ! P P P 4 ",
"o $ d ! &.@.&.<.1.1.6.0.8.q.q.q.r.1.r.                                                                            j ! Y ! Y M 4 ",
"o $ d ! ! ;.<.1.1.3.3.8.q.w.w.r.y.1.6.                                                                            x ! E K K K 4 ",
"o $ d &.&.<.8.1.1.6.6.8.q.w.w.r.i.1.6.                                                                            d P K K n n 4 ",
"o $ d &.&.P <.8.6.8.8.q.q.w.r.r.w.&.y.                                                                            u E K G M n 4 ",
"o $ d ;.&.M K :.8.q.q.q.r.r.r.y.y.8.y.                                                                            5 Y P G x x 4 ",
"o $ d <.<.=.=.3.6.6.q.r.w.t.p.p.6.! 1.                                                                            = G M M x x 4 ",
"o $ d <.1.3.3.3.q.q.q.w.r.t.t.p.0.j =.                                                                            $ D n x x j 4 ",
"o $ d 3.3.3.q.q.q.q.r.r.r.y.p.p.a.G w.                                                                            . M x x j d 4 ",
"o $ d 1.3.1.8.6.w.w.w.6.3.q.p.j.j.! x                                                                             v n x x x j 4 ",
"o $ d 3.1.P <.8.q.w.0.P ;.3.p.g.t.K <.r.v.c.b.n.v.c.z.z.j.j.j.a.p.p.i.r.r.r.q.q.q.q.6.3.1.1.&.^ ^ Y P Y G M x u D n x x j d d 4 ",
"o $ d 3.6.M K 1.r.r.0.D K :.d.j.r.D K r.v.b.n.b.b.c.k.k.k.d.g.d.p.t.t.r.w.q.q.q.3.3.3.3.<.<.;.@.! ! ! ! E E Y n x x x j d d d 4 ",
"o $ d 3.8.6.8.w.r.y.y.w.w.p.d.j.k.t.t.j.v.b.n.v.z.z.z.j.j.g.g.p.p.p.y.w.w.q.8.8.3.3.1.<.<.;.@.! ! ! ! ! E K G K M x x x d d j 4 ",
"o $ d 8.0.q.q.r.r.i.i.a.a.g.j.j.k.z.c.z.n.n.c.c.c.k.k.j.j.p.p.p.y.r.r.r.q.q.q.8.1.3.3.<.<.&.&.! ! ! ! Y K K M x x x d j d d j 4 ",
"o $ u n n n n n n n n n n n n n n n n n n n n n n n n n n n n n n n n n n n n n n n n n n n n n n n n n n n n n n n n n n n n , ",
"o $ @ @ @ @ @ @ @ @ @ @ @ @ @ @ @ @ @ @ @ @ @ @ @ @ @ @ @ @ @ @ @ @ @ @ @ @ @ @ @ @ @ @ @ @ @ @ @ @ @ @ @ @ @ @ @ @ @ @ @ @ @ o ",
"o $ o o o o o o o o o o o o o o o o o o o o o o o o o o o o o o o o o o o o o o o o o o o o o o o o o o o o o o o o o o o o o o ",
"o $ o o o o o o o o o o o o o o o o o o o o o o o o o o o o o o o o o o o o o o o o o o o o o o o o o o o o o o o o o o o o o o ",
"o o o o o o o o o o o o o o o o o o o o o o o o o o o o o o o o o o o o o o o o o o o o o o o o o o o o o o o o o o o o o o o o "
};
