/* XPM */
static char * door3_xpm[] = {
"64 64 111 2",
"  	c #000000",
". 	c #202020",
"+ 	c #292929",
"@ 	c #494949",
"# 	c #5C5C5C",
"$ 	c #585858",
"% 	c #4E4E4E",
"& 	c #6A6A6A",
"* 	c #8D8D8D",
"= 	c #9A9A9A",
"- 	c #969696",
"; 	c #9D9D9D",
"> 	c #A4A4A4",
", 	c #A2A2A2",
"' 	c #ACACAC",
") 	c #B0B0B0",
"! 	c #B4B4B4",
"~ 	c #BCBCBC",
"{ 	c #CDCDCD",
"] 	c #D7D7D7",
"^ 	c #DEDEDE",
"/ 	c #EAEAEA",
"( 	c #EEEEEE",
"_ 	c #E2E2E2",
": 	c #E6E6E6",
"< 	c #D9D9D9",
"[ 	c #D1D1D1",
"} 	c #C9C9C9",
"| 	c #B8B8B8",
"1 	c #ABABAB",
"2 	c #AAAAAA",
"3 	c #9F9F9F",
"4 	c #989898",
"5 	c #818181",
"6 	c #5E5E5E",
"7 	c #8A8A8A",
"8 	c #878787",
"9 	c #838383",
"0 	c #727272",
"a 	c #636363",
"b 	c #2A2A2A",
"c 	c #646464",
"d 	c #6C6C6C",
"e 	c #C5C5C5",
"f 	c #A9A9A9",
"g 	c #7F7F7F",
"h 	c #686868",
"i 	c #2B2B2B",
"j 	c #7B7B7B",
"k 	c #C0C0C0",
"l 	c #575757",
"m 	c #7D7D7D",
"n 	c #757575",
"o 	c #696969",
"p 	c #656565",
"q 	c #767676",
"r 	c #626262",
"s 	c #9C9C9C",
"t 	c #9B9B9B",
"u 	c #6E6E6E",
"v 	c #535353",
"w 	c #8C8C8C",
"x 	c #2C2C2C",
"y 	c #525252",
"z 	c #909090",
"A 	c #929292",
"B 	c #7E7E7E",
"C 	c #707070",
"D 	c #676767",
"E 	c #2D2D2D",
"F 	c #939393",
"G 	c #616161",
"H 	c #737373",
"I 	c #717171",
"J 	c #6F6F6F",
"K 	c #919191",
"L 	c #4B4B4B",
"M 	c #747474",
"N 	c #6D6D6D",
"O 	c #2F2F2F",
"P 	c #858585",
"Q 	c #303030",
"R 	c #A1A1A1",
"S 	c #797979",
"T 	c #313131",
"U 	c #8F8F8F",
"V 	c #505050",
"W 	c #323232",
"X 	c #898989",
"Y 	c #959595",
"Z 	c #AFAFAF",
"` 	c #777777",
" .	c #545454",
"..	c #333333",
"+.	c #787878",
"@.	c #343434",
"#.	c #666666",
"$.	c #353535",
"%.	c #595959",
"&.	c #4F4F4F",
"*.	c #363636",
"=.	c #5B5B5B",
"-.	c #373737",
";.	c #515151",
">.	c #4C4C4C",
",.	c #4D4D4D",
"'.	c #484848",
").	c #383838",
"!.	c #393939",
"~.	c #414141",
"{.	c #262626",
". + @ # $ % % % % % % & * * = - ; > , , ' ' ) ! ! ~ ! , ) { ] ] ^ ^ ^ / ( ( _ : ^ < < [ { } | - - ' ) ' 1 2 3 4 5 6 7 8 9 0 a b ",
". + @ c & c c c c c d 5 * - = = ; > ' ' ' ) ! | ! ~ , ' [ < ! ! [ : ( ( / / _ ^ < ] > > ) e e > - ; ) ! f , 3 4 5 6 7 g d h c i ",
". + @ 0 0 j j j j j 5 8 - - = = > , > ' ) ) ! e e > > ] [ ~ & - ! _ / ( : < [ ^ ] ) d - > e k ! ; - ; ' 1 2 = - 5 l m n 0 o p i ",
". + @ 0 q j j j j 5 * - - - ; ; , ; ' ' ' ! ! ~ 2 , k [ < | r & ! / / / < = d } < ' # & ; | | ! ) = - > s t = - u v w n 0 o p x ",
". + @ 0 j j j j j 8 * * ; ; = > ' = ' ! ! ! | ' , ~ ] ] ] < | | ] ( ( ^ 2 5 y q e } ) , | e ~ ) ) 2 , - z s 4 A u v B C u & D E ",
". + @ j j j j j 5 8 - - - = > , > = ) ) | e | , ) [ ] ] ^ ^ _ : / ( _ ! = } 5 $ 5 e e e ~ ! ! ! ' ' , , w z t F G y H I J d o E ",
". + @ q j j 5 j - - - = ; ; ; 2 ' = ) ! ! | , ' [ [ < < < _ : / ( / ~ K } ^ { q $ K e | | ! ) ) ' 2 , ; 2 w 4 7 G L M 0 C N r O ",
". + @ j j j 8 5 8 K ; = ; 2 2 ' ' = ! ! ~ > > { ] ] < ^ < _ ( ( ( e K ) ^ ] ] k r $ ) e ! ) ) ' > > , ; = f w P G L n H I & c Q ",
". + @ j j j j * - - = ; ; > 2 ) ) = | k 2 , e [ ] ] < ^ ^ : / / [ , ) ] < ] [ } 2 $ r ! ! ) ) ' 2 , ; = = R s S r L q M 0 C 6 T ",
". + @ j j 5 - * - = ; ; , ' ' ' ) = | ' , k ] ] < < ^ _ _ / ( ^ , K [ ^ ] [ } } k 8 $ d ' ) ' 2 > , = = = - f U & V q n p c G W ",
". + @ j 8 5 8 - = = , 2 > ' ' ' ! = ! , ' } ] ! ! [ < / ( ( : 2 K [ < ] ] ] } } k ~ j y j ' 2 > ; 5 X 8 - - Y Z U r ` N M &  ...",
". + @ j j * - = = ; ; > ' ) ) ! ~ = , ' } { ~ & - ! _ _ / / ! X } < < ] [ { } e ~ ~ > r y m > ; X & 5 X * j j Y , M +.0 p c a @.",
". + @ 8 8 - > = = , , > ' ) ) ! k = , { ] ] ! r & ! _ ( ( | K ) ^ < ] ] { e k k ! ! ! , & # ; ; X # & q 8 8 j j w g & D #. .v $.",
". + @ 8 8 d - > , > > ' ' ) ! ! | = ~ { { < < | | ^ ( ( } K ) < ^ < [ [ e e ~ | ! ) ' ' X $ $ ; = 8 8 * 5 j j j n I M h G %. .$.",
". + @ * 8 # & K > ' ' ' ! ! ! ~ e e e ] ] < < _ ^ : ( ] , X [ < ] ] ] { e k e ~ ) ! ) > , j @ 0 - - 8 5 j j j j j I I & r V &.*.",
". + @ - - X X ; , , ' ! ) | e e e [ ] ] ] ^ ^ ^ : / ^ , K [ < < ] [ { } e ~ ! ! ! ' ' ' > K $ % q 8 j j j j j j 0 d o =.=.V V -.",
". + @ - = ; ; ; ' ' ' ) ! | | e { { ] ^ < < : / / : 2 5 } ^ < ] ] { } k e ! ! ) ' ' > , ; ; * % % q 5 5 j j q 0 0 & & l ;.;.>.-.",
". + @ ; ; ; ' ' ' ' ! ! ! ~ e e } ] ] ] < ^ _ / ( ~ X ) ^ < < [ { } } k | ! ) ) ' > , , = = - d % # j j j j q j 5 q # y y ,.'.).",
". + @ = ; = > , ) ) ) , ; ' e ] ] ! ! [ ^ _ / / / K j * = = = = - - - - 8 8 8 8 8 8 8 8 8 8 8 8 m c j j j j q & j 5 $ y y y ,.).",
". + @ ; = d - > ' ) 2 d * ; e [ | & - ! : _ / ( : _ ^ ^ ] ] ] } e e k ! ! ! ' ' ' ' , ; = = * 8 8 j j j j 0 r % r $ y y % @ @ !.",
". + @ ; , # & = ! ! 2 r & K { ] ! r & ! : / ( / / _ < < < { [ { e | | ! ) ' ' ' ; ; ; ; - - * 5 j j j j q q 0 $ y y y % @ @ @ !.",
". + @ ; > , > ) ! ~ ~ ) ) e { ] < | | ] : / ( : ^ ^ ^ ] ] [ [ e e e ~ ) ) ' > > ; ; = - - * 5 j j j j j q & c & # y y y @ @ % !.",
". + @ > 2 ' ' ! ! k k } } [ ] ] < ^ _ ^ ( ( _ _ _ < < ] ] e e e ~ ! ! ! ' ' ' > = ; ; - - 8 8 j j j j 0 & & # y y y @ % @ @ % !.",
". + ~.$ $ $ $ $ $ $ $ $ $ $ $ $ $ $ $ $ $ $ $ $ $ $ $ $ $ $ $ $ $ $ $ $ $ $ $ $ $ $ $ $ $ $ $ $ $ $ $ $ $ $ $ $ $ $ $ $ $ $ $ -.",
". + {.{.{.{.{.{.{.{.{.{.{.{.{.{.{.{.{.{.{.{.{.{.{.{.{.{.{.{.{.{.{.{.{.{.{.{.{.{.{.{.{.{.{.{.{.{.{.{.{.{.{.{.{.{.{.{.{.{.{.{.{.. ",
". + . . . . . . . . . . . . . . . . . . . . . . . . . . . . . . . . . . . . . . . . . . . . . . . . . . . . . . . . . . . . . . ",
". + . . . . . . . . . . . . . . . . . . . . . . . . . . . . . . . . . . . . . . . . . . . . . . . . . . . . . . . . . . . . . . ",
". . . . . . . . . . . . . . . . . . . . . . . . . . . . . . . . . . . . . . . . . . . . . . . . . . . . . . . . . . . . . . . . ",
"                                                                                                                                ",
"                                                                                                                                ",
"                                                                                                                                ",
"                                                                                                                                ",
"                                                                                                                                ",
"                                                                                                                                ",
"                                                                                                                                ",
"                                                                                                                                ",
"                                                                                                                                ",
"                                                                                                                                ",
"                                                                                                                                ",
"                                                                                                                                ",
"                                                                                                                                ",
"                                                                                                                                ",
"                                                                                                                                ",
"                                                                                                                                ",
"                                                                                                                                ",
"                                                                                                                                ",
"                                                                                                                                ",
"                                                                                                                                ",
"                                                                                                                                ",
"                                                                                                                                ",
"                                                                                                                                ",
"                                                                                                                                ",
"                                                                                                                                ",
"                                                                                                                                ",
"                                                                                                                                ",
"                                                                                                                                ",
"                                                                                                                                ",
"                                                                                                                                ",
"                                                                                                                                ",
"                                                                                                                                ",
"                                                                                                                                ",
"                                                                                                                                ",
"                                                                                                                                ",
"                                                                                                                                "};
