/* XPM */
static char *_2d0b6b81c574e13c9badf9afe630a80jU0ldPSf3fyqJAnO[] = {
/* columns rows colors chars-per-pixel */
"64 64 81 1 ",
"  c gray10",
". c gray12",
"X c #202020",
"o c gray15",
"O c gray16",
"+ c #2F2F2F",
"@ c gray20",
"# c #353535",
"$ c gray23",
"% c #3C3C3C",
"& c #7B0000",
"* c #7F0000",
"= c #4D2F2F",
"- c #5E3737",
"; c #603737",
": c #623939",
"> c #663D3D",
", c #6A3D3D",
"< c #434343",
"1 c gray27",
"2 c #494949",
"3 c #4E4E4E",
"4 c gray32",
"5 c #565656",
"6 c #585858",
"7 c gray36",
"8 c #6A4747",
"9 c #704343",
"0 c #7C4F4F",
"q c #626262",
"w c #646464",
"e c #6A6A6A",
"r c #6C6C6C",
"t c #727272",
"y c #767676",
"u c #7B7B7B",
"i c gray49",
"p c #830000",
"a c #8B0000",
"s c #8F0000",
"d c #950000",
"f c #9C0000",
"g c #A20000",
"h c #A40000",
"j c #A80000",
"k c #AC0000",
"l c #B00000",
"z c #B40000",
"x c #BD0000",
"c c #C20000",
"v c #C70000",
"b c #D70000",
"n c #805353",
"m c #818181",
"M c gray53",
"N c #898989",
"B c #8D8D8D",
"V c gray57",
"C c gray59",
"Z c #9A9A9A",
"A c #9D9D9D",
"S c #A2A2A2",
"D c #A4A4A4",
"F c #AAAAAA",
"G c #ACACAC",
"H c gray69",
"J c #B4B4B4",
"K c gray72",
"L c #BCBCBC",
"P c #C0C0C0",
"I c #C5C5C5",
"U c gray79",
"Y c #CDCDCD",
"T c gray82",
"R c #D7D7D7",
"E c gray85",
"W c gray87",
"Q c #E2E2E2",
"! c #E6E6E6",
"~ c #EAEAEA",
"^ c #EEEEEE",
/* pixels */
"XXXXXXXXXXXXXXXXXXXXXXXXXXXXXXXXXXXXXXXXXXXXXXXXXXXXXXXXXXXXXXXX",
"XOOOOOOOOOOOOOOOOOOOOOOOOOOOOOOOOOOOOOOOOOOOOOOOOOOOOOOOOOOOOOOo",
"XO2eeeeeeeeeeeeeeeeeerttttttttttttttttttttttttttttteeeeeeeeeeeeo",
"XO2CCCBmuuuuytee6443223444werruuuuumMCCCZDSDHHHKIPIUTRRWWQ!~^^Go",
"XO2CCBJSuuuyBm764emw224446wwuyyuumuCCCZAAAFGGHJJLIUTTEEEQ!~^^WDo",
"XO2CBrCJuuyeBNw64ruu334466eetuuuuMmMVAZAFFGGHJJLIIYRREWEQ^^!!QDo",
"XO2BB7emuut6eq443#@+O++@$$%Oo+1wwwyiCZAADFHHHKPA7uuye5r66T^^!EDo",
"XO2Mmuuuuyyr66633oO#%%<<1e4%###%%%%%22222222222332rCJZD6eH~QWWSo",
"XO2uuuuuuyewe6443.o24447eNFmuuuuuyttuiiMNNNVVVVmMHRWEEU73BQQWESo",
"XO2Muuuuree644421+#447eeeyASuuuuBCZZAADGHHJLKIUGSURRWQQRGLWWEEAo",
"XO2uuuuuyew643321O#444eyytmGCuMMCCZZASDGHHJPIIKAUREWWQ^^ESQWEEZo",
"XO2uuuuteee444321#$44werruumHCMBZZASDDGGHJJKPLSLEWEQ^^^~QMEWRTZo",
"XO2uuye0z974433343$7wertuuuuBGBCAAZDGGGJJJLILSHREEQW!^~~TVERRTZo",
"XO2uyynzzl>332233w%7ettuuuuuMAFCCAASSGJHKIIIHHRRWWW!~^!~UmERUYAo",
"XO2uu0zzkhh-22244V#wetyymABuCCAAAAAGGGHJKKIHSUWEEKJT^^WEA1RTRUZo",
"XO2ynzzkhhgf-2346CX3etutrBAmBVZDDGGGGJJJLIKDURREPeCJ!QQJy3RYIICo",
"XO2tzzlhhgfff3444A$26uuy6emMCCZADFDHHHLPILSLREEWKqeJ~~UBu3TUIKCo",
"XO2tt764432224466Fe526uuumMCCZAAADFGHJKLUDHTEEW!WJPWWTCDNtRIUICo",
"XO2eww64442224667Fee33tumMBZZZAGFDDHJJIPGHRREWW!~^!QEZVTNtYIPKCo",
"XO2exzzhgfffg47eeFuut33uuCCCZAADGHGDJLIGSIREEWQ!~^^!JBYRNtILLJBo",
"XO27,zjhfffg>66wyFuuut36MCCAAADFGGJGGPLDIRREWQW^^!QHmLERNtIPJJHo",
"XO2e4,hffff>44werFuuuut3eZZZSDFGHHJJFFSPYRWEW^^^QQUCGRRYNtPLKHHo",
"XO2443;fff>4wweeuFuuuuuq3uZASFSDDJKKLGGTREPJT!~^^TCDRRTUNtKJHHGo",
"XO24332:g>4467yyyFuuuMMB64VSFCrCDJIIUYRRRPeCJ^^!QGMYEYYINtJJGGGo",
"XO244224446wweryuFuumVBZB5eVFZ7eAKKIUTYEWKqeJ^~WJBURTTYINtJHJGAo",
"XO2333wrttttttruuFuuMCCZAM7mGGACHLIIURREEWKKW~!LNGRRYIIINtJHGGGo",
"XO232<ereerurtyuuFmmMVZZADi7ZHHLIIIRTRRWWW!^^~RCFWRTUYPJNtGGGASo",
"XO221<weeweutyuuuFmCCCZASAGmrSJKLUUTTEEEQ~^^~TCVTRRRIIILNtHFDSA+",
"XO22<1eeeeeuuuuuuDmMZAZAGGGFttGPIIURREWWQ~^~EGBYRRYIILKJNtGGFAZ$",
"XO22<19zzz9uyuuuuDCCCCSSSFJHSrMIITTEPJTQ^~^^KmLETTUILKJHNtFSDAV$",
"XO23<1dzvbzmuuuumDBAZZASGGGJJCeSYYRPeCJ!^^!UCDRRRTUIIJHHMtFDAZZ$",
"XO2413pgzczMuuuuMDCZAASDGGJJJLmrYRRKqeJ^^QQZuURRUIIKLKJGMtSAZZB$",
"XO2333&sfffMuuuCBDZAAAGFGHKPLKSHRREEKLW~^^QPBZUYUIPKJHHGMwSZZZB$",
"XO2433=*pa8NuMmMCDZADDGGHJJPIDDREREQQQ^^QQWEGCFUUPPJJGGGMwAACCM$",
"XO2663511qmNuuBCCDAAFFHGJKKLGSIREWE!^^~!QWEERACGILPJHHGDMwZZCCm$",
"XO2653tuuyBNmMBCZDADFGHHHLIGSLRRREQQW^~~WWERRICCKJJJGGFFMwZZBBm$",
"XO276333333eBBZCADSSGGHJJLJSHYRRWWW~^^Q!WEETYUKCCGHGGGSAMwCCCMu$",
"XO2wewwwwwrmBCZZADGGGHJKJLSGTEJJT!^^~~QWERDDHIIDCAHJFDSAMwCBuuu$",
"XO2ttuuuuumMCCZZDSDGHHJIIDDRTLeCJQ~^!ETWRHrCDIPJACAGGGAZM7Mmmuu$",
"XO2tyuuuumBCCCAASAGGGJJLFSPTEKqeJ~~~EZrUEG7eAKKJHZCDAAAZt6Cmmuu$",
"XO2tuuuuuMBBAAZDGZGJJJKGSLRRREKKR^^WFm4yIUHSKILHHFSCVAZCt6Muuuu$",
"XO2uuuuumMCCCZDSDZHHKIKSHTRRWWQ!~^QJZUm6mIIILJJJGGSSBVACw5uuuuu$",
"XO2yuumuCCCZAAAFGZHJJKSGTTEEEQ!~^~LVUWYy6VIKKJHHGFSAFBZBw3uuuut$",
"XO2uuuMmMVAZAFFGGZJJLDDYRREWEQ^^^IVHWRRPq6HIJHHGDDSAZFBMw3uuuyt$",
"XO2uuuuBCCZAADFHHZKPFSITRREWW!~~TSHRERTUF6qJJHHGFSAZZSAuw3uuuue$",
"XO2uumCBCZAASGGGHZKGSPRREEWQQ~^WSVTWRTUUPM6rGHGFDSZZZCFVe3uurrr$",
"XO2uMmMCZZSFDGGGJZJSGURJJTE~^^!FVTERRRUUPLu4uGFDAmNMCCCHN3utut7$",
"XO2uuBCZZAADGHHJLZSGUYLeCJQQ~~JNUEERTYUILLDq4iDANemNBuuCZ4uyeee$",
"XO2MMCDZZSSDGHHJPZSYRRJqeJQ^^KVHWERRYIPPJJJSe7AAN7eyMMuuB2ree66$",
"XO2MMrCDSDDGGHJJHMLYYEEKKW^^UVHEWETTIILKJHGGN66AZMMBmuuuy<yew76$",
"XO2BM7eVDGGGJJJLLDLRREEQW!^RSNTERRRYIPILHJHDSu2tCCMmuuuuu%trw44$",
"XO2CCNNASSGJHKIISuZRRWWW!~WSVTEERTYUILJJJGGGDV63yMuuuuuut+w7744$",
"XO2CZAAAGGGHJKKIF3NWEE!~~!FmUWERRYUPIJJHGGDSAAB33ymmuuyttOq6443$",
"XO2AAAGGGGJJJLIIUwHLYTRWWHNHWEETYUUPKJHHGDSSZZCr37uutwqw4 74432$",
"XO2ZAZDSHHHSAGIRRu4tZASSStyBZZZZCCCCMMMMMMMMMM775<<@14413564443$",
"XO2AZrCDGHFrBAITKeCJ!Q~^!QWWRRRUIIPJJJGGGGSAZZMiitrtw74<q644322$",
"XO2AS7eZJJFqeVYRJqeJ!~^~~QEEEYTYIKKJHGGGAAAACCBmuuuuyyt64443222$",
"XO2ADSDHJLLHHIYREKKR!~^!WWWRRTTIIILHHGDDAAZCCBmuuuuuyewe7444223$",
"XO2DFGGJJPPUUTRREWQW^^QQQEERRIIILJJJGGGDZAACCMMuuuutee744423223$",
"XO<666666666666666666666666666666666666666666666666666666666666#",
"XOoooooooooooooooooooooooooooooooooooooooooooooooooooooooooooooX",
"XOXXXXXXXXXXXXXXXXXXXXXXXXXXXXXXXXXXXXXXXXXXXXXXXXXXXXXXXXXXXXXX",
"XOXXXXXXXXXXXXXXXXXXXXXXXXXXXXXXXXXXXXXXXXXXXXXXXXXXXXXXXXXXXXXX",
"XXXXXXXXXXXXXXXXXXXXXXXXXXXXXXXXXXXXXXXXXXXXXXXXXXXXXXXXXXXXXXXX"
};
