/* XPM */
static char *_6deb948e008417d84a5b8a6573323e794egWuXAPikh0pDZ[] = {
/* columns rows colors chars-per-pixel */
"64 64 146 2 ",
"   c None",
".  c gray10",
"X  c gray12",
"o  c #202020",
"O  c gray13",
"+  c #252525",
"@  c gray15",
"#  c #272727",
"$  c gray16",
"%  c #2A2A2A",
"&  c gray17",
"*  c gray18",
"=  c #2F2F2F",
"-  c gray19",
";  c #313131",
":  c gray20",
">  c #343434",
",  c #353535",
"<  c #373737",
"1  c gray22",
"2  c #393939",
"3  c #3A3A3A",
"4  c gray23",
"5  c #3C3C3C",
"6  c #3E3E3E",
"7  c #3F3F3F",
"8  c #7B0000",
"9  c #7F0000",
"0  c #4D2F2F",
"q  c #5E3737",
"w  c #603737",
"e  c #623939",
"r  c #663D3D",
"t  c #6A3D3D",
"y  c gray25",
"u  c #414141",
"i  c gray26",
"p  c #444444",
"a  c gray27",
"s  c gray28",
"d  c #494949",
"f  c #4B4B4B",
"g  c #4C4C4C",
"h  c gray30",
"j  c #4E4E4E",
"k  c gray31",
"l  c #505050",
"z  c #515151",
"x  c gray32",
"c  c #535353",
"v  c #565656",
"b  c gray34",
"n  c #585858",
"m  c gray35",
"M  c gray36",
"N  c #5D5D5D",
"B  c gray37",
"V  c #5F5F5F",
"C  c #6A4747",
"Z  c #704343",
"A  c #7C4F4F",
"S  c gray38",
"D  c #626262",
"F  c gray39",
"G  c #646464",
"H  c #656565",
"J  c DimGray",
"K  c #6A6A6A",
"L  c gray42",
"P  c #6C6C6C",
"I  c gray44",
"U  c #717171",
"Y  c #727272",
"T  c gray45",
"R  c #747474",
"E  c gray46",
"W  c #767676",
"Q  c #777777",
"!  c #797979",
"~  c #7B7B7B",
"^  c #7C7C7C",
"/  c gray49",
"(  c #7E7E7E",
")  c #830000",
"_  c #8B0000",
"`  c #8F0000",
"'  c #950000",
"]  c #9C0000",
"[  c #A20000",
"{  c #A40000",
"}  c #A80000",
"|  c #AC0000",
" . c #B00000",
".. c #B40000",
"X. c #BD0000",
"o. c #C20000",
"O. c #C70000",
"+. c #D70000",
"@. c #805353",
"#. c #818181",
"$. c #848484",
"%. c gray52",
"&. c #868686",
"*. c gray53",
"=. c #888888",
"-. c #898989",
";. c gray54",
":. c #8D8D8D",
">. c gray57",
",. c #939393",
"<. c #959595",
"1. c gray59",
"2. c #9A9A9A",
"3. c #9B9B9B",
"4. c #9D9D9D",
"5. c #9F9F9F",
"6. c #A0A0A0",
"7. c #A2A2A2",
"8. c gray64",
"9. c #A4A4A4",
"0. c #A5A5A5",
"q. c #AAAAAA",
"w. c #ACACAC",
"e. c gray69",
"r. c #B2B2B2",
"t. c #B4B4B4",
"y. c gray72",
"u. c #BCBCBC",
"i. c gray75",
"p. c #C0C0C0",
"a. c #C5C5C5",
"s. c gray79",
"d. c gray80",
"f. c #CDCDCD",
"g. c #D0D0D0",
"h. c gray82",
"j. c gray83",
"k. c #D7D7D7",
"l. c gray85",
"z. c gainsboro",
"x. c gray87",
"c. c #DFDFDF",
"v. c #E2E2E2",
"b. c #E6E6E6",
"n. c #EAEAEA",
"m. c #EEEEEE",
/* pixels */
"o o o o o o o o o o o o o o o o o o o o o o o o o o o o o o o o o o o o o o o o o o o o o o o o o o o o o o o o o o o o o o o o ",
"o $ $ $ $ $ $ $ $ $ $ $ $ $ $ $ $ $ $ $ $ $ $ $ $ $ $ $ $ $ $ $ $ $ $ $ $ $ $ $ $ $ $ $ $ $ $ $ $ $ $ $ $ $ $ $ $ $ $ $ $ $ $ @ ",
"o $ d K K K K K K K K K K K K K K K K K K P Y Y Y Y Y Y Y Y Y Y Y Y Y Y Y Y Y Y Y Y Y Y Y Y Y Y Y Y Y K K K K K K K K K K K K @ ",
"o $ d 1.1.1.:.#.~ ~ ~ ~ W Y K K n x x j d d j x x x G K P P ~ ~ ~ ~ ~ #.*.1.1.1.2.9.7.9.e.e.e.y.a.p.a.s.h.k.k.x.x.v.b.n.m.m.w.@ ",
"o $ d 1.1.:.t.7.~ ~ ~ W :.#.M n x K #.G d d x x x n G G ~ W W ~ ~ #.~ 1.1.1.2.4.4.4.q.w.w.e.t.t.u.a.s.h.h.l.l.l.v.b.n.m.m.x.9.@ ",
"o $ d 1.:.P 1.t.~ ~ W K :.-.G n x P ~ ~ j j x x n n K K Y ~ ~ ~ ~ *.#.*.>.4.2.4.q.q.w.w.e.t.t.u.a.a.f.k.k.l.x.l.v.m.m.b.b.v.9.@ ",
"o $ d :.:.M K #.~ ~ Y n K D x x j , : = $ = = : 4 4 5 $ @ = a G G G W / 1.2.4.4.9.q.e.e.e.y.p.4.M ~ ~ W K v P n n h.m.m.b.l.9.@ ",
"o $ d *.#.~ ~ ~ ~ W W P n n n j j @ $ j K Y ~ Y P :.4.#.:.>.2.9.9.w.w.w.w.t.t.t.u.a.y.9.s.k.k.l.p.K 1.t.b.v.v.t.W e.n.v.x.x.7.@ ",
"o $ d ~ ~ ~ ~ ~ ~ W K G K n x x j X @ d n ~ ~ W n K #.*.1.1.2.4.9.q.9.e.e.e.u.p.a.u.7.u.k.l.l.x.y.D K t.n.n.s.:.~ :.v.v.x.l.7.@ ",
"o $ d *.~ ~ ~ ~ P K K n x x x d a = , v d n ~ ~ ~ #.*.1.1.2.4.4.4.9.q.w.e.t.y.u.s.9.e.h.l.l.x.b.x.t.p.x.x.h.1.9.-.u.x.x.l.l.4.@ ",
"o $ d ~ ~ ~ ~ ~ W K G n x j j d a $ , K j j Y ~ #.*.:.2.2.2.4.w.q.9.9.e.t.t.a.p.w.e.k.k.l.x.x.b.n.m.b.v.l.2.>.h.-.7.v.x.l.l.2.@ ",
"o $ d ~ ~ ~ ~ Y K K K x x x j d a , 4 ~ Y j j ~ ~ 1.1.1.2.4.4.9.w.e.w.9.t.u.a.w.7.a.k.l.l.x.v.b.n.m.m.b.t.:.f.k.-.*.l.x.k.h.2.@ ",
"o $ d ~ ~ W K A ..Z M x x j j j x j 4 ~ ~ Y j n *.1.1.4.4.4.9.q.w.w.t.w.w.p.u.9.a.k.k.l.x.v.x.m.m.b.v.e.#.u.l.k.-.>.l.k.k.h.2.@ ",
"o $ d ~ W W @..... .r j j d d j j G 5 ~ ~ ~ Y j K 2.2.2.7.9.q.w.e.e.t.t.q.q.7.p.f.k.x.l.x.m.m.m.v.v.s.1.w.k.k.f.-.#.l.k.s.f.4.@ ",
"o $ d ~ ~ A ....| { { q d d d x x >., ~ ~ ~ ~ D j ~ 2.4.7.q.7.9.9.t.y.y.u.w.w.h.k.l.p.t.h.b.n.m.m.h.1.9.k.k.h.s.-.a k.h.k.s.2.@ ",
"o $ d W @.....| { { [ ] q d j x n 1.o ~ ~ *.*.:.n x >.7.q.1.P 1.9.t.a.a.s.f.k.k.k.p.K 1.t.m.m.b.v.w.*.f.l.f.f.a.-.j k.f.a.a.1.@ ",
"o $ d Y .... .{ { [ ] ] ] j x x x 4.4 ~ #.>.:.2.:.v K >.q.2.M K 4.y.y.a.s.h.f.l.x.y.D K t.m.n.x.t.:.s.k.h.h.f.a.-.j h.s.a.y.1.@ ",
"o $ d Y Y M n x x j d d d x x n n q.K ~ *.1.1.2.4.*.M #.w.w.4.1.e.u.a.a.s.k.k.l.l.x.y.y.x.n.b.u.-.w.k.k.f.a.a.a.-.Y k.a.s.a.1.@ ",
"o $ d K G G n x x x d d d x n n M q.K #.*.>.2.2.4.9./ M 2.e.e.u.a.a.a.k.h.k.k.x.x.x.b.m.m.n.k.1.q.x.k.h.s.f.p.t.-.Y f.a.p.y.1.@ ",
"o $ d K X.....{ [ ] ] ] [ x M K K q.~ 1.1.1.2.4.7.4.w.#.P 7.t.y.u.s.s.h.h.l.l.l.v.n.m.m.n.h.1.>.h.k.k.k.a.a.a.u.-.Y a.u.u.t.:.@ ",
"o $ d M t ..} { ] ] ] [ r n n G W q.~ *.2.4.2.4.w.w.w.q.Y Y w.p.a.a.s.k.k.l.x.x.v.n.m.n.l.w.:.f.k.k.f.a.a.u.y.t.-.Y a.p.t.t.e.@ ",
"o $ d K x t { ] ] ] ] r x x G K P q.~ 1.1.1.7.7.7.q.t.e.7.P *.a.a.h.h.l.p.t.h.v.m.n.m.m.y.#.u.l.h.h.s.a.u.y.t.e.-.Y p.u.y.e.e.@ ",
"o $ d x x j w ] ] ] r x G G K K ~ q.~ 4.2.2.4.7.w.w.w.t.t.1.K 7.f.f.k.p.K 1.t.b.m.m.b.s.1.9.k.k.k.h.s.a.a.t.e.e.*.Y y.t.e.e.w.@ ",
"o $ d x j j d e [ r x x n M W W W q.~ 2.4.4.7.9.w.w.t.t.t.u.#.P f.k.k.y.D K t.m.m.v.v.2.~ s.k.k.s.a.a.y.u.y.t.w.*.Y t.t.w.w.w.@ ",
"o $ d x x d d x x x n G G K P W ~ q.~ 4.4.4.w.q.w.e.y.p.u.y.7.e.k.k.l.l.y.u.x.n.m.m.v.p.:.2.s.f.s.a.p.y.t.e.e.w.*.Y t.e.t.w.4.@ ",
"o $ d j j j G P Y Y Y Y Y Y P ~ ~ q.~ 4.9.9.w.w.e.t.t.p.a.9.9.k.l.k.l.v.v.v.m.m.v.v.x.l.w.1.q.s.s.p.p.t.t.w.w.w.*.Y t.e.w.w.w.@ ",
"o $ d j d u K P K K P ~ P Y W ~ ~ q.#.4.q.q.e.w.t.y.y.u.w.7.a.k.l.x.l.b.m.m.n.b.v.x.l.l.k.4.1.w.a.u.p.t.e.e.w.9.*.Y w.w.w.4.7.@ ",
"o $ d d a u G K K G K ~ Y W ~ ~ ~ q.#.9.q.w.e.e.e.u.a.w.7.u.k.k.k.l.v.v.x.m.n.n.x.x.l.k.k.a.1.1.y.t.t.t.w.w.q.q.*.Y e.q.9.7.4.= ",
"o $ d d u a K K K K K ~ ~ ~ ~ ~ ~ 9.#.7.w.w.e.t.t.u.t.7.e.f.k.k.x.x.x.n.m.m.v.b.x.l.l.h.f.s.y.1.1.w.e.w.w.w.7.4.*.Y w.w.q.4.2.4 ",
"o $ d d u a Z ......Z ~ W ~ ~ ~ ~ 9.1.w.w.e.t.y.t.u.7.w.h.l.t.t.h.b.m.m.n.n.v.x.l.k.9.9.e.a.a.9.1.4.e.t.q.9.7.4.*.Y q.7.9.4.>.4 ",
"o $ d j u a ' ..O.+...#.~ ~ ~ ~ #.9.:.w.e.e.t.a.a.9.9.k.h.u.K 1.t.v.n.m.b.l.h.x.k.e.P 1.9.a.p.t.4.1.4.w.w.w.4.2.*.Y q.9.4.2.2.4 ",
"o $ d x a j ) [ ..o...*.~ ~ ~ ~ *.9.1.w.w.t.t.u.q.7.p.h.l.y.D K t.n.n.n.l.2.P s.l.w.M K 4.y.y.t.e.2.1.9.4.4.4.2.Y Y 7.4.2.2.:.4 ",
"o $ d j j j 8 ` ] ] ] *.~ ~ ~ 1.:.9.2.t.t.t.y.w.7.u.k.k.k.l.y.y.k.m.m.x.q.#.x W a.s.e.7.y.a.u.e.e.q.7.1.>.4.2.1.Y G 7.2.2.2.:.4 ",
"o $ d x j j 0 9 ) _ C -.~ *.#.*.1.9.2.e.y.a.y.7.e.h.k.k.x.x.v.b.n.m.v.t.2.s.#.n #.a.a.a.u.t.t.t.w.w.7.7.:.>.4.1.G G 4.4.1.1.*.4 ",
"o $ d n n j v a a D #.-.~ ~ :.1.1.9.4.t.t.y.7.w.h.h.l.l.l.v.b.n.m.n.u.>.s.x.f.W n >.a.y.y.t.e.e.w.q.7.4.q.:.2.:.G G 2.2.1.1.#.4 ",
"o $ d n v j Y ~ ~ W :.-.#.*.:.1.2.9.4.t.u.9.9.f.k.k.l.x.l.v.m.m.m.a.>.e.x.k.k.p.D n e.a.t.e.e.w.9.9.7.4.2.q.:.*.G G 2.2.:.:.#.4 ",
"o $ d M n j j j j j j K :.:.2.1.4.9.7.p.q.7.a.h.k.k.l.x.x.b.n.n.h.7.e.k.l.k.h.s.q.n D t.t.e.e.w.q.7.4.2.2.7.4.~ G G 1.1.1.*.~ 4 ",
"o $ d G K G G G G G P #.:.1.2.2.4.9.w.w.7.p.k.k.l.l.x.v.v.n.m.x.7.>.h.x.k.h.s.s.p.*.n P w.e.w.q.9.7.2.2.2.1.q.>.K G 1.:.~ ~ ~ 4 ",
"o $ d Y Y ~ ~ ~ ~ ~ #.*.1.1.2.2.9.7.9.7.w.s.k.t.t.h.l.n.m.m.b.q.>.h.l.k.k.k.s.s.p.u.~ x ~ w.q.9.4.#.-.*.1.1.1.e.-.M *.#.#.~ ~ 4 ",
"o $ d Y W ~ ~ ~ ~ #.:.1.1.1.4.4.7.4.w.w.s.f.u.K 1.t.v.v.n.n.t.-.s.l.l.k.h.f.s.a.u.u.9.D x / 9.4.-.K #.-.:.~ ~ 1.2.n 1.#.#.~ ~ 4 ",
"o $ d Y ~ ~ ~ ~ ~ *.:.:.4.4.2.9.w.2.w.f.k.k.t.D K t.v.m.m.y.>.e.x.l.k.k.f.a.p.p.t.t.t.7.K M 4.4.-.M K W *.*.~ ~ :.n *.~ ~ ~ ~ 4 ",
"o $ d ~ ~ ~ ~ ~ #.*.1.1.1.2.9.7.9.2.e.f.f.l.l.y.y.x.m.m.s.>.e.l.x.l.h.h.a.a.u.y.t.e.w.w.-.n n 4.2.*.*.:.#.~ ~ ~ W v ~ ~ ~ ~ ~ 4 ",
"o $ d W ~ ~ #.~ 1.1.1.2.4.4.4.q.w.2.e.k.k.l.l.v.x.b.m.k.7.-.h.l.k.k.k.f.a.p.a.u.e.t.e.9.7.~ d Y 1.1.*.#.~ ~ ~ ~ ~ j ~ ~ ~ ~ Y 4 ",
"o $ d ~ ~ ~ *.#.*.>.4.2.4.q.q.w.w.2.t.k.k.x.x.x.b.n.x.7.>.h.l.l.k.h.f.s.a.u.t.t.t.w.w.w.9.>.n j W *.~ ~ ~ ~ ~ ~ Y j ~ ~ ~ W Y 4 ",
"o $ d ~ ~ ~ ~ :.1.1.2.4.4.9.q.e.e.2.y.x.l.l.b.n.n.b.q.#.s.x.l.k.k.f.s.p.a.t.t.e.w.w.9.7.4.4.:.j j W #.#.~ ~ W Y Y j ~ ~ ~ ~ K 4 ",
"o $ d ~ ~ #.1.:.1.2.4.4.7.w.w.w.e.2.y.u.f.h.k.x.x.e.-.e.x.l.l.h.f.s.s.p.y.t.e.e.w.9.7.7.2.2.1.P j M ~ ~ Y G D G x j ~ ~ P P P 4 ",
"o $ d ~ *.#.*.1.2.2.7.q.9.w.w.w.t.2.t.Y 2.4.7.7.7.Y W :.2.2.2.2.1.1.1.1.*.*.*.*.*.*.*.*.*.*.M M v u u : a x x a j j ~ Y ~ Y M 4 ",
"o $ d ~ ~ :.1.2.2.4.4.9.w.e.e.t.u.2.7.                                                                            x ~ W K K K 4 ",
"o $ d *.*.1.9.2.2.7.7.9.w.e.e.t.p.2.7.                                                                            d P K K n n 4 ",
"o $ d *.*.P 1.9.7.9.9.w.w.e.t.t.e.*.u.                                                                            u W K G M n 4 ",
"o $ d :.*.M K >.9.w.w.w.t.t.t.u.u.9.u.                                                                            5 Y P G x x 4 ",
"o $ d 1.1.-.-.4.7.7.w.t.e.y.a.a.7.~ 2.                                                                            = G M M x x 4 ",
"o $ d 1.2.4.4.4.w.w.w.e.t.y.y.a.q.j -.                                                                            $ D n x x j 4 ",
"o $ d 4.4.4.w.w.w.w.t.t.t.u.a.a.s.G e.                                                                            . M x x j d 4 ",
"o $ d 2.4.2.9.7.e.e.e.7.4.w.a.k.k.~ x                                                                             v n x x x j 4 ",
"o $ d 4.2.P 1.9.w.e.q.P :.4.a.h.y.K 1.t.b.v.n.m.b.v.x.x.k.k.k.s.a.a.p.t.t.t.w.w.w.w.7.4.2.2.*./ / Y P Y G M x u D n x x j d d 4 ",
"o $ d 4.7.M K 2.t.t.q.D K >.f.k.t.D K t.b.n.m.n.n.v.l.l.l.f.h.f.a.y.y.t.e.w.w.w.4.4.4.4.1.1.:.#.~ ~ ~ ~ W W Y n x x x j d d d 4 ",
"o $ d 4.9.7.9.e.t.u.u.e.e.a.f.k.l.y.y.k.b.n.m.b.x.x.x.k.k.h.h.a.a.a.u.e.e.w.9.9.4.4.2.1.1.:.#.~ ~ ~ ~ ~ W K G K M x x x d d j 4 ",
"o $ d 9.q.w.w.t.t.p.p.s.s.h.k.k.l.x.v.x.m.m.v.v.v.l.l.k.k.a.a.a.u.t.t.t.w.w.w.9.2.4.4.1.1.*.*.~ ~ ~ ~ Y K K M x x x d j d d j 4 ",
"o $ u n n n n n n n n n n n n n n n n n n n n n n n n n n n n n n n n n n n n n n n n n n n n n n n n n n n n n n n n n n n n , ",
"o $ @ @ @ @ @ @ @ @ @ @ @ @ @ @ @ @ @ @ @ @ @ @ @ @ @ @ @ @ @ @ @ @ @ @ @ @ @ @ @ @ @ @ @ @ @ @ @ @ @ @ @ @ @ @ @ @ @ @ @ @ @ o ",
"o $ o o o o o o o o o o o o o o o o o o o o o o o o o o o o o o o o o o o o o o o o o o o o o o o o o o o o o o o o o o o o o o ",
"o $ o o o o o o o o o o o o o o o o o o o o o o o o o o o o o o o o o o o o o o o o o o o o o o o o o o o o o o o o o o o o o o ",
"o o o o o o o o o o o o o o o o o o o o o o o o o o o o o o o o o o o o o o o o o o o o o o o o o o o o o o o o o o o o o o o o "
};
