/* XPM */
static char * door2_xpm[] = {
"64 64 161 2",
"  	c None",
". 	c #202020",
"+ 	c #292929",
"@ 	c #494949",
"# 	c #525252",
"$ 	c #585858",
"% 	c #646464",
"& 	c #6A6A6A",
"* 	c #6C6C6C",
"= 	c #767676",
"- 	c #7B7B7B",
"; 	c #AAAAAA",
"> 	c #818181",
", 	c #919191",
"' 	c #8D8D8D",
") 	c #9A9A9A",
"! 	c #565656",
"~ 	c #5C5C5C",
"{ 	c #9D9D9D",
"] 	c #B8B8B8",
"^ 	c #C5C5C5",
"/ 	c #C9C9C9",
"( 	c #D1D1D1",
"_ 	c #CDCDCD",
": 	c #D9D9D9",
"< 	c #DEDEDE",
"[ 	c #626262",
"} 	c #B4B4B4",
"| 	c #EEEEEE",
"1 	c #EAEAEA",
"2 	c #D7D7D7",
"3 	c #CCCCCC",
"4 	c #C4C4C4",
"5 	c #888888",
"6 	c #707070",
"7 	c #B0B0B0",
"8 	c #ACACAC",
"9 	c #A3A3A3",
"0 	c #929292",
"a 	c #222222",
"b 	c #4E4E4E",
"c 	c #727272",
"d 	c #878787",
"e 	c #969696",
"f 	c #BCBCBC",
"g 	c #E6E6E6",
"h 	c #898989",
"i 	c #C3C3C3",
"j 	c #AFAFAF",
"k 	c #A9A9A9",
"l 	c #A1A1A1",
"m 	c #9E9E9E",
"n 	c #212121",
"o 	c #414141",
"p 	c #A4A4A4",
"q 	c #7D7D7D",
"r 	c #BFBFBF",
"s 	c #B2B2B2",
"t 	c #6F6F6F",
"u 	c #A6A6A6",
"v 	c #A2A2A2",
"w 	c #939393",
"x 	c #454545",
"y 	c #E2E2E2",
"z 	c #B9B9B9",
"A 	c #868686",
"B 	c #6E6E6E",
"C 	c #989898",
"D 	c #949494",
"E 	c #8C8C8C",
"F 	c #272727",
"G 	c #C0C0C0",
"H 	c #BBBBBB",
"I 	c #B6B6B6",
"J 	c #B1B1B1",
"K 	c #858585",
"L 	c #9C9C9C",
"M 	c #303030",
"N 	c #704343",
"O 	c #B40000",
"P 	c #B7B7B7",
"Q 	c #ADADAD",
"R 	c #6D6D6D",
"S 	c #979797",
"T 	c #2F2F2F",
"U 	c #950000",
"V 	c #C70000",
"W 	c #D70000",
"X 	c #B3B3B3",
"Y 	c #838383",
"Z 	c #A0A0A0",
"` 	c #8E8E8E",
" .	c #2D2D2D",
"..	c #830000",
"+.	c #A20000",
"@.	c #C20000",
"#.	c #A8A8A8",
"$.	c #828282",
"%.	c #909090",
"&.	c #7B0000",
"*.	c #8F0000",
"=.	c #9C0000",
"-.	c #AEAEAE",
";.	c #5F5F5F",
">.	c #848484",
",.	c #757575",
"'.	c #2C2C2C",
").	c #4D2F2F",
"!.	c #7F0000",
"~.	c #8B0000",
"{.	c #6A4747",
"].	c #A7A7A7",
"^.	c #5E5E5E",
"/.	c #808080",
"(.	c #2B2B2B",
"_.	c #9F9F9F",
":.	c #8B8B8B",
"<.	c #696969",
"[.	c #ABABAB",
"}.	c #A5A5A5",
"|.	c #777777",
"1.	c #686868",
"2.	c #2A2A2A",
"3.	c #8A8A8A",
"4.	c #636363",
"5.	c #7F7F7F",
"6.	c #575757",
"7.	c #656565",
"8.	c #9B9B9B",
"9.	c #535353",
"0.	c #7E7E7E",
"a.	c #676767",
"b.	c #616161",
"c.	c #737373",
"d.	c #717171",
"e.	c #4B4B4B",
"f.	c #747474",
"g.	c #797979",
"h.	c #313131",
"i.	c #8F8F8F",
"j.	c #505050",
"k.	c #323232",
"l.	c #959595",
"m.	c #545454",
"n.	c #333333",
"o.	c #787878",
"p.	c #343434",
"q.	c #666666",
"r.	c #353535",
"s.	c #595959",
"t.	c #4F4F4F",
"u.	c #363636",
"v.	c #5B5B5B",
"w.	c #373737",
"x.	c #515151",
"y.	c #4C4C4C",
"z.	c #4D4D4D",
"A.	c #484848",
"B.	c #383838",
"C.	c #393939",
"D.	c #262626",
". + @ # # @ @ # # # $ % % & * = - ; - - > , ' ) ' ! & , ; ) ~ & { ] ] ^ / ( _ : < ] [ & } | 1 < } ' / 2 ( ( 3 4 5 6 7 ; 8 9 0 a ",
". + @ b b b % * c c c c c c * - - ; - - d e e ) { d ~ > 8 8 { e 7 f ^ ^ / 2 2 : : < ] ] < 1 g f h 8 2 2 _ ^ 4 i d 6 j k 9 l m n ",
". + @ b @ o & * & & * - * c = - - ; > > d , ) ) { p q ~ ) 7 7 f ^ ^ ^ 2 ( 2 2 < < < g | | 1 2 e ; < 2 ( / 3 r s d t u p v , w n ",
". + @ @ x o % & & % & - c = - - - ; > e e e ) { v { 8 > * v } ] f / / ( ( : : : y 1 | | 1 ( e , ( 2 2 2 ^ 4 i z A B k l C D E F ",
". + @ @ o x & & & & & - - - - - - p > d ) { ) { 8 8 8 ; c c 8 G ^ ^ / 2 2 : < < y 1 | 1 : 8 ' _ 2 2 _ ^ ^ H I J K B p l L ' 5 M ",
". + @ @ o x N O O O N - = - - - - p e e e e v v v ; } 7 v * d ^ ^ ( ( : G } ( y | 1 | | ] > f : ( ( / ^ H P s Q K R l S e E q T ",
". + @ b o x U O V W O > - - - - > p ' { ) ) { v 8 8 8 } } e & v _ _ 2 G & e } g | | g / e p 2 2 2 ( / ^ 4 X Q 8 Y R Z S ` d Y  .",
". + @ # x b ..+.O @.O d - - - - d p e ) { { v p 8 8 } } } f > * _ 2 2 ] [ & } | | y y ) - / 2 2 / ^ ^ ] H I J #.$.* S %.h A =  .",
". + @ b b b &.*.=.=.=.d - - - e ' p ) { { { 8 ; 8 7 ] G f ] v 7 2 2 : : ] f < 1 | | y G ' ) / _ / ^ G ] X -.Q #.$.;.S E 5 >.,.'.",
". + @ # b b ).!...~.{.h - d > d e p ) { p p 8 8 7 } } G ^ p p 2 : 2 : y y y | | y y < : 8 e ; / / G G } X ; k ].> ^., ` >./.t (.",
". + @ $ $ b ! x x [ > h - - ' e e p { { ; ; 7 8 } ] ] f 8 v ^ 2 : < : g | | 1 g y < : : 2 { e 8 ^ f G } j -.k _.> ^.` :.>./.<.(.",
". + @ $ ! b c - - = ' h > d ' e ) p { p ; 8 7 7 7 f ^ 8 v f 2 2 2 : y y < | 1 1 < < : 2 2 ^ e e ] } } } [.; ].}.> ^.` :.- |.1.2.",
". + @ ~ $ b b b b b b & ' ' ) e { p v v 8 8 7 } } f } v 7 _ 2 2 < < < 1 | | y g < : : ( _ / ] e e 8 7 8 [.; _.C > ^.3.d Y c 4.2.",
". + @ % & % % % % % * > ' e ) ) { p 8 8 8 7 } ] } f v 8 ( : } } ( g | | 1 1 y < : 2 p p 7 ^ ^ p e { 7 } k v _.C > ^.3.5.* 1.% (.",
". + @ c c - - - - - > d e e ) ) p v p 8 7 7 } ^ ^ p p 2 ( f & e } y 1 | g : ( < 2 7 * e p ^ G } { e { 8 [.; ) e > 6.q ,.c <.7.(.",
". + @ c = - - - - > ' e e e { { v { 8 8 8 } } f ; v G ( : ] [ & } 1 1 1 : ) * / : 8 ~ & { ] ] } 7 ) e p L 8.) e B 9.E ,.c <.7.'.",
". + @ c - - - - - d ' ' { { ) p 8 ) 8 } } } ] 8 v f 2 2 2 : ] ] 2 | | < ; > # = ^ / 7 v ] ^ f 7 7 ; v e %.L C 0 B 9.0.6 B & a. .",
". + @ - - - - - > d e e e ) p v p ) 7 7 ] ^ ] v 7 ( 2 2 < < y g 1 | y } ) / > $ > ^ ^ ^ f } } } 8 8 v v E %.8.w b.# c.d.t * <. .",
". + @ = - - > - e e e ) { { { ; 8 ) 7 } } ] v 8 ( ( : : : y g 1 | 1 f , / < _ = $ , ^ ] ] } 7 7 8 ; v { ; E C 3.b.e.f.c 6 R [ T ",
". + @ - - - d > d , { ) { ; ; 8 8 ) } } f p p _ 2 2 : < : y | | | ^ , 7 < 2 2 G [ $ 7 ^ } 7 7 8 p p v { ) k E K b.e.,.c.d.& % M ",
". + @ - - - - ' e e ) { { p ; 7 7 ) ] G ; v ^ ( 2 2 : < < g 1 1 ( v 7 2 : 2 ( / ; $ [ } } 7 7 8 ; v { ) ) l L g.[ e.= f.c 6 ^.h.",
". + @ - - > e ' e ) { { v 8 8 8 7 ) ] 8 v G 2 2 : : < y y 1 | < v , ( < 2 ( / / G d $ * 8 7 8 ; p v ) ) ) e k i.& j.= ,.7.% b.k.",
". + @ - d > d e ) ) v ; p 8 8 8 } ) } v 8 / 2 } } ( : 1 | | g ; , ( : 2 2 2 / / G f - # - 8 ; p { > h d e e l.j i.[ |.R f.& m.n.",
". + @ - - ' e ) ) { { p 8 7 7 } f ) v 8 / _ f & e } y y 1 1 } h / : : 2 ( _ / ^ f f p [ # q p { h & > h ' - - l.v f.o.c 7.% 4.p.",
". + @ d d e p ) ) v v p 8 7 7 } G ) v _ 2 2 } [ & } y | | ] , 7 < : 2 2 _ ^ G G } } } v & ~ { { h ~ & = d d - - E 5.& a.q.m.9.r.",
". + @ d d * e p v p p 8 8 7 } } ] ) f _ _ : : ] ] < | | / , 7 : < : ( ( ^ ^ f ] } 7 8 8 h $ $ { ) d d ' > - - - ,.d.f.1.b.s.m.r.",
". + @ ' d ~ & , p 8 8 8 } } } f ^ ^ ^ 2 2 : : y < g | 2 v h ( : 2 2 2 _ ^ G ^ f 7 } 7 p v - @ c e e d > - - - - - d.d.& [ j.t.u.",
". + @ e e h h { v v 8 } 7 ] ^ ^ ^ ( 2 2 2 < < < g 1 < v , ( : : 2 ( _ / ^ f } } } 8 8 8 p , $ b = d - - - - - - c * <.v.v.j.j.w.",
". + @ e ) { { { 8 8 8 7 } ] ] ^ _ _ 2 < : : g 1 1 g ; > / < : 2 2 _ / G ^ } } 7 8 8 p v { { ' b b = > > - - = c c & & 6.x.x.y.w.",
". + @ { { { 8 8 8 8 } } } f ^ ^ / 2 2 2 : < y 1 | f h 7 < : : ( _ / / G ] } 7 7 8 p v v ) ) e * b ~ - - - - = - > = ~ # # z.A.B.",
". + @ ) { ) p v 7 7 7 v { 8 ^ 2 2 } } ( < y 1 1 1 , - ' ) ) ) ) e e e e d d d d d d d d d d d d q % - - - - = & - > $ # # # z.B.",
". + @ { ) * e p 8 7 ; * ' { ^ ( ] & e } g y 1 | g y < < 2 2 2 / ^ ^ G } } } 8 8 8 8 v { ) ) ' d d - - - - c [ b [ $ # # b @ @ C.",
". + @ { v ~ & ) } } ; [ & , _ 2 } [ & } g 1 | 1 1 y : : : _ ( _ ^ ] ] } 7 8 8 8 { { { { e e ' > - - - - = = c $ # # # b @ @ @ C.",
". + @ { p v p 7 } f f 7 7 ^ _ 2 : ] ] 2 g 1 | g < < < 2 2 ( ( ^ ^ ^ f 7 7 8 p p { { ) e e ' > - - - - - = & % & ~ # # # @ @ b C.",
". + @ p ; 8 8 } } G G / / ( 2 2 : < y < | | y y y : : 2 2 ^ ^ ^ f } } } 8 8 8 p ) { { e e d d - - - - c & & ~ # # # @ b @ @ b C.",
". + o $ $ $ $ $ $ $ $ $ $ $ $ $ $ $ $ $ $ $ $ $ $ $ $ $ $ $ $ $ $ $ $ $ $ $ $ $ $ $ $ $ $ $ $ $ $ $ $ $ $ $ $ $ $ $ $ $ $ $ $ w.",
". + D.D.D.D.D.D.D.D.D.D.D.D.D.D.D.D.D.D.D.D.D.D.D.D.D.D.D.D.D.D.D.D.D.D.D.D.D.D.D.D.D.D.D.D.D.D.D.D.D.D.D.D.D.D.D.D.D.D.D.D.D.. ",
". + . . . . . . . . . . . . . . . . . . . . . . . . . . . . . . . . . . . . . . . . . . . . . . . . . . . . . . . . . . . . . . ",
". + . . . . . . . . . . . . . . . . . . . . . . . . . . . . . . . . . . . . . . . . . . . . . . . . . . . . . . . . . . . . . . ",
". . . . . . . . . . . . . . . . . . . . . . . . . . . . . . . . . . . . . . . . . . . . . . . . . . . . . . . . . . . . . . . . ",
"                                                                                                                                ",
"                                                                                                                                ",
"                                                                                                                                ",
"                                                                                                                                ",
"                                                                                                                                ",
"                                                                                                                                ",
"                                                                                                                                ",
"                                                                                                                                ",
"                                                                                                                                ",
"                                                                                                                                ",
"                                                                                                                                ",
"                                                                                                                                ",
"                                                                                                                                ",
"                                                                                                                                ",
"                                                                                                                                ",
"                                                                                                                                ",
"                                                                                                                                ",
"                                                                                                                                ",
"                                                                                                                                ",
"                                                                                                                                ",
"                                                                                                                                ",
"                                                                                                                                ",
"                                                                                                                                ",
"                                                                                                                                "};
