/* XPM */
static char * door4_xpm[] = {
"64 64 72 1",
" 	c None",
".	c #202020",
"+	c #292929",
"@	c #494949",
"#	c #878787",
"$	c #969696",
"%	c #A4A4A4",
"&	c #9A9A9A",
"*	c #A2A2A2",
"=	c #ACACAC",
"-	c #B0B0B0",
";	c #B4B4B4",
">	c #C0C0C0",
",	c #CDCDCD",
"'	c #D7D7D7",
")	c #626262",
"!	c #6A6A6A",
"~	c #E2E2E2",
"{	c #EEEEEE",
"]	c #B8B8B8",
"^	c #919191",
"/	c #DEDEDE",
"(	c #D9D9D9",
"_	c #C5C5C5",
":	c #5C5C5C",
"<	c #9D9D9D",
"[	c #898989",
"}	c #767676",
"|	c #7B7B7B",
"1	c #8C8C8C",
"2	c #7F7F7F",
"3	c #676767",
"4	c #666666",
"5	c #545454",
"6	c #535353",
"7	c #353535",
"8	c #6C6C6C",
"9	c #BCBCBC",
"0	c #C9C9C9",
"a	c #D1D1D1",
"b	c #585858",
"c	c #8D8D8D",
"d	c #818181",
"e	c #757575",
"f	c #717171",
"g	c #747474",
"h	c #686868",
"i	c #616161",
"j	c #595959",
"k	c #E6E6E6",
"l	c #727272",
"m	c #505050",
"n	c #4F4F4F",
"o	c #363636",
"p	c #EAEAEA",
"q	c #4E4E4E",
"r	c #696969",
"s	c #5B5B5B",
"t	c #373737",
"u	c #AAAAAA",
"v	c #575757",
"w	c #515151",
"x	c #4C4C4C",
"y	c #525252",
"z	c #4D4D4D",
"A	c #484848",
"B	c #383838",
"C	c #7D7D7D",
"D	c #646464",
"E	c #393939",
"F	c #414141",
"G	c #262626",
".+@##$%&&**%=--;>&*,'';)!;~{{]^-/('',_>>;;;*!:<<[:!}##||12!34567",
".+@##8$%*%%==-;;]&9,,((]]/{{0^-(/(aa__9];-==[bb<&##cd|||efghij57",
".+@c#:!^%===;;;9___''((~/k{'*[a(''',_>_9-;-%*|@l$$#d|||||ff!)mno",
".+@$$[[<**=;-]___a'''///kp/*^a(('a,0_9;;;===%^bq}#||||||l8rssmmt",
".+@$&<<<===-;]]_,,'/((kppkud0/('',0>_;;-==%*<<cqq}dd||}ll!!vwwxt",
".+@<<<====;;;9__0'''(/~p{9[-/((a,00>];--=%**&&$8q:||||}|d}:yyzAB",
".+@&<&%*---*<=_'';;a/~ppp^|c&&&&$$$$############CD||||}!|dbyyyzB",
".+@<&8$%=-u8c<_a]!$;k~p{k~//'''0__>;;;====*<&&c##||||l)q)byyq@@E",
".+@<*:!&;;u)!^,';)!;kp{pp~(((,a,_]];-===<<<<$$cd||||}}lbyyyq@@@E",
".+@<%*%-;99--_,'(]]'kp{k///''aa___9--=%%<<&$$cd|||||}!D!:yyy@@qE",
".+@%u==;;>>00a''(/~/{{~~~((''___9;;;===%&<<$$##||||l!!:yyy@q@@qE",
".+Fbbbbbbbbbbbbbbbbbbbbbbbbbbbbbbbbbbbbbbbbbbbbbbbbbbbbbbbbbbbbt",
".+GGGGGGGGGGGGGGGGGGGGGGGGGGGGGGGGGGGGGGGGGGGGGGGGGGGGGGGGGGGGG.",
".+..............................................................",
".+..............................................................",
"................................................................",
"                                                                ",
"                                                                ",
"                                                                ",
"                                                                ",
"                                                                ",
"                                                                ",
"                                                                ",
"                                                                ",
"                                                                ",
"                                                                ",
"                                                                ",
"                                                                ",
"                                                                ",
"                                                                ",
"                                                                ",
"                                                                ",
"                                                                ",
"                                                                ",
"                                                                ",
"                                                                ",
"                                                                ",
"                                                                ",
"                                                                ",
"                                                                ",
"                                                                ",
"                                                                ",
"                                                                ",
"                                                                ",
"                                                                ",
"                                                                ",
"                                                                ",
"                                                                ",
"                                                                ",
"                                                                ",
"                                                                ",
"                                                                ",
"                                                                ",
"                                                                ",
"                                                                ",
"                                                                ",
"                                                                ",
"                                                                ",
"                                                                ",
"                                                                ",
"                                                                ",
"                                                                ",
"                                                                ",
"                                                                "};
