/* XPM */
static char * door1_xpm[] = {
"64 64 178 2",
"  	c #000000",
". 	c #202020",
"+ 	c #292929",
"@ 	c #494949",
"# 	c #7B7B7B",
"$ 	c #767676",
"% 	c #6A6A6A",
"& 	c #7C4F4F",
"* 	c #B40000",
"= 	c #704343",
"- 	c #5C5C5C",
"; 	c #525252",
"> 	c #4E4E4E",
", 	c #646464",
"' 	c #6C6C6C",
") 	c #727272",
"! 	c #8D8D8D",
"~ 	c #ACACAC",
"{ 	c #969696",
"] 	c #9D9D9D",
"^ 	c #9A9A9A",
"/ 	c #A4A4A4",
"( 	c #B4B4B4",
"_ 	c #BCBCBC",
": 	c #C5C5C5",
"< 	c #A2A2A2",
"[ 	c #B0B0B0",
"} 	c #D7D7D7",
"| 	c #D9D9D9",
"1 	c #E2E2E2",
"2 	c #DEDEDE",
"3 	c #E6E6E6",
"4 	c #EEEEEE",
"5 	c #EAEAEA",
"6 	c #D1D1D1",
"7 	c #262626",
"8 	c #805353",
"9 	c #B00000",
"0 	c #663D3D",
"a 	c #878787",
"b 	c #AAAAAA",
"c 	c #B8B8B8",
"d 	c #C9C9C9",
"e 	c #CDCDCD",
"f 	c #AC0000",
"g 	c #A40000",
"h 	c #5E3737",
"i 	c #818181",
"j 	c #A20000",
"k 	c #9C0000",
"l 	c #585858",
"m 	c #919191",
"n 	c #C0C0C0",
"o 	c #7D7D7D",
"p 	c #565656",
"q 	c #626262",
"r 	c #959595",
"s 	c #898989",
"t 	c #C4C4C4",
"u 	c #BFBFBF",
"v 	c #B7B7B7",
"w 	c #949494",
"x 	c #252525",
"y 	c #BD0000",
"z 	c #BBBBBB",
"A 	c #BABABA",
"B 	c #B2B2B2",
"C 	c #8A8A8A",
"D 	c #6A3D3D",
"E 	c #A80000",
"F 	c #BEBEBE",
"G 	c #ABABAB",
"H 	c #242424",
"I 	c #717171",
"J 	c #B9B9B9",
"K 	c #603737",
"L 	c #888888",
"M 	c #B6B6B6",
"N 	c #232323",
"O 	c #623939",
"P 	c #B1B1B1",
"Q 	c #AFAFAF",
"R 	c #A6A6A6",
"S 	c #A3A3A3",
"T 	c #CCCCCC",
"U 	c #707070",
"V 	c #929292",
"W 	c #222222",
"X 	c #C3C3C3",
"Y 	c #A9A9A9",
"Z 	c #A1A1A1",
"` 	c #9E9E9E",
" .	c #212121",
"..	c #414141",
"+.	c #6F6F6F",
"@.	c #939393",
"#.	c #454545",
"$.	c #868686",
"%.	c #6E6E6E",
"&.	c #989898",
"*.	c #8C8C8C",
"=.	c #272727",
"-.	c #858585",
";.	c #9C9C9C",
">.	c #303030",
",.	c #ADADAD",
"'.	c #6D6D6D",
").	c #979797",
"!.	c #2F2F2F",
"~.	c #950000",
"{.	c #C70000",
"].	c #D70000",
"^.	c #B3B3B3",
"/.	c #838383",
"(.	c #A0A0A0",
"_.	c #8E8E8E",
":.	c #2D2D2D",
"<.	c #830000",
"[.	c #C20000",
"}.	c #A8A8A8",
"|.	c #828282",
"1.	c #909090",
"2.	c #7B0000",
"3.	c #8F0000",
"4.	c #AEAEAE",
"5.	c #5F5F5F",
"6.	c #848484",
"7.	c #757575",
"8.	c #2C2C2C",
"9.	c #4D2F2F",
"0.	c #7F0000",
"a.	c #8B0000",
"b.	c #6A4747",
"c.	c #A7A7A7",
"d.	c #5E5E5E",
"e.	c #808080",
"f.	c #2B2B2B",
"g.	c #9F9F9F",
"h.	c #8B8B8B",
"i.	c #696969",
"j.	c #A5A5A5",
"k.	c #777777",
"l.	c #686868",
"m.	c #2A2A2A",
"n.	c #636363",
"o.	c #7F7F7F",
"p.	c #575757",
"q.	c #656565",
"r.	c #9B9B9B",
"s.	c #535353",
"t.	c #7E7E7E",
"u.	c #676767",
"v.	c #616161",
"w.	c #737373",
"x.	c #4B4B4B",
"y.	c #747474",
"z.	c #797979",
"A.	c #313131",
"B.	c #8F8F8F",
"C.	c #505050",
"D.	c #323232",
"E.	c #545454",
"F.	c #333333",
"G.	c #787878",
"H.	c #343434",
"I.	c #666666",
"J.	c #353535",
"K.	c #595959",
"L.	c #4F4F4F",
"M.	c #363636",
"N.	c #5B5B5B",
"O.	c #373737",
"P.	c #515151",
"Q.	c #4C4C4C",
"R.	c #4D4D4D",
"S.	c #484848",
"T.	c #383838",
"U.	c #393939",
". + @ # # $ % & * = - ; ; > > > ; ; ; - , % ' ) # # # # ! ~ ! { ] ] ^ / ~ ~ ~ ( ( ( _ : _ < [ } | | 1 2 3 4 5 5 2 6 | } } 6 ^ 7 ",
". + @ # $ $ 8 * * 9 0 > > @ @ > > ' - - % ) ) # # # # # a ] b { { ] ] < < ~ ( [ c : : : [ [ } } 2 2 2 3 5 4 3 5 6 { | } d e ] 7 ",
". + @ # # & * * f g g h @ @ @ ; ; ] > , % ) $ $ i ] ! # { { ] ] ] ] ] ~ ~ ~ [ ( c c : [ < d 2 | | c ( 6 4 4 2 | ~ $ } 6 } d ^ 7 ",
". + @ $ 8 * * f g g j k h @ > ; l b @ > % ) # ) ' ! ] i ! m ^ / / ~ ~ ~ ~ ( ( ( _ : c / d } } | n % { ( 3 1 1 ( o ) } e : : { 7 ",
". + @ ) * * 9 g g j k k k > ; ; ; b p @ l # # $ l % i a { { ^ ] / b / [ [ [ _ n : _ < _ } | | 2 c q % ( 5 5 d ! i ) 6 d : c r 7 ",
". + @ ) ) - l ; ; > @ @ @ ; ; l l b % p @ l # # # i a { { ^ ] ] ] / b ~ [ ( c _ d / [ 6 | | 2 3 2 ( n 2 2 6 { / s ) } : d t r 7 ",
". + @ % , , l ; ; ; @ @ @ ; l l - b % % > > ) # i a ! ^ ^ ^ ] ~ b / / [ ( ( : n ~ [ } } | 2 2 3 5 4 3 1 | ^ m 6 s ) e t u v w x ",
". + @ % y * * g j k k k j ; - % % b # # ) > > # # { { { ^ ] ] / ~ [ ~ / ( _ : ~ < : } | | 2 1 3 5 4 4 3 ( ! e } s ) t z A B C x ",
". + @ - D * E g k k k j 0 l l , $ b # # # ) > l a { { ] ] ] / b ~ ~ ( ~ ~ n _ / : } } | 2 1 2 4 4 3 1 [ i _ | } s ) t F B [ G H ",
". + @ % ; D g k k k k 0 ; ; , % ' b # # # # ) > % ^ ^ ^ < / b ~ [ [ ( ( b b < n e } 2 | 2 4 4 4 1 1 d { ~ } } e s I F J ( G b H ",
". + @ ; ; > K k k k 0 ; , , % % # b # # # # # q > # ^ ] < b < / / ( c c _ ~ ~ 6 } | n ( 6 3 5 4 4 6 { / } } 6 d L I M [ G b / N ",
". + @ ; > > @ O j 0 ; ; l - $ $ $ b # # # a a ! l ; m < b { ' { / ( : : d e } } } n % { ( 4 4 3 1 ~ a e | e e t L I P Q R / S N ",
". + @ ; ; @ @ ; ; ; l , , % ' $ # b # # i m ! ^ ! p % m b ^ - % ] c c : d 6 e | 2 c q % ( 4 5 2 ( ! d } 6 6 T t L U [ b ~ S V W ",
". + @ > > > , ' ) ) ) ) ) ) ' # # b # # a { { ^ ] a - i ~ ~ ] { [ _ : : d } } | | 2 c c 2 5 3 _ s ~ } } e : t X a U Q Y S Z `  .",
". + @ > @ ..% ' % % ' # ' ) $ # # b i i a m ^ ^ ] / o - ^ [ [ _ : : : } 6 } } 2 2 2 3 4 4 5 } { b 2 } 6 d T u B a +.R / < m @. .",
". + @ @ #..., % % , % # ) $ # # # b i { { { ^ ] < ] ~ i ' < ( c _ d d 6 6 | | | 1 5 4 4 5 6 { m 6 } } } : t X J $.%.Y Z &.w *.=.",
". + @ @ ..#.% % % % % # # # # # # / i a ^ ] ^ ] ~ ~ ~ b ) ) ~ n : : d } } | 2 2 1 5 4 5 | ~ ! e } } e : : z M P -.%./ Z ;.! L >.",
". + @ @ ..#.= * * * = # $ # # # # / { { { { < < < b ( [ < ' a : : 6 6 | n ( 6 1 4 5 4 4 c i _ | 6 6 d : z v B ,.-.'.Z ).{ *.o !.",
". + @ > ..#.~.* {.].* i # # # # i / ! ] ^ ^ ] < ~ ~ ~ ( ( { % < e e } n % { ( 3 4 4 3 d { / } } } 6 d : t ^.,.~ /.'.(.)._.a /.:.",
". + @ ; #.> <.j * [.* a # # # # a / { ^ ] ] < / ~ ~ ( ( ( _ i ' e } } c q % ( 4 4 1 1 ^ # d } } d : : c z M P }.|.' ).1.s $.$ :.",
". + @ > > > 2.3.k k k a # # # { ! / ^ ] ] ] ~ b ~ [ c n _ c < [ } } | | c _ 2 5 4 4 1 n ! ^ d e d : n c ^.4.,.}.|.5.).*.L 6.7.8.",
". + @ ; > > 9.0.<.a.b.s # a i a { / ^ ] / / ~ ~ [ ( ( n : / / } | } | 1 1 1 4 4 1 1 2 | ~ { b d d n n ( ^.b Y c.i d.m _.6.e.+.f.",
". + @ l l > p #.#.q i s # # ! { { / ] ] b b [ ~ ( c c _ ~ < : } | 2 | 3 4 4 5 3 1 2 | | } ] { ~ : _ n ( Q 4.Y g.i d._.h.6.e.i.f.",
". + @ l p > ) # # $ ! s i a ! { ^ / ] / b ~ [ [ [ _ : ~ < _ } } } | 1 1 2 4 5 5 2 2 | } } : { { c ( ( ( G b c.j.i d._.h.# k.l.m.",
". + @ - l > > > > > > % ! ! ^ { ] / < < ~ ~ [ ( ( _ ( < [ e } } 2 2 2 5 4 4 1 3 2 | | 6 e d c { { ~ [ ~ G b g.&.i d.C a /.) n.m.",
". + @ , % , , , , , ' i ! { ^ ^ ] / ~ ~ ~ [ ( c ( _ < ~ 6 | ( ( 6 3 4 4 5 5 1 2 | } / / [ : : / { ] [ ( Y < g.&.i d.C o.' l., f.",
". + @ ) ) # # # # # i a { { ^ ^ / < / ~ [ [ ( : : / / } 6 _ % { ( 1 5 4 3 | 6 2 } [ ' { / : n ( ] { ] ~ G b ^ { i p.o 7.) i.q.f.",
". + @ ) $ # # # # i ! { { { ] ] < ] ~ ~ ~ ( ( _ b < n 6 | c q % ( 5 5 5 | ^ ' d | ~ - % ] c c ( [ ^ { / ;.r.^ { %.s.*.7.) i.q.8.",
". + @ ) # # # # # a ! ! ] ] ^ / ~ ^ ~ ( ( ( c ~ < _ } } } | c c } 4 4 2 b i ; $ : d [ < c : _ [ [ b < { 1.;.&.V %.s.t.U %.% u.:.",
". + @ # # # # # i a { { { ^ / < / ^ [ [ c : c < [ 6 } } 2 2 1 3 5 4 1 ( ^ d i l i : : : _ ( ( ( ~ ~ < < *.1.r.@.v.; w.I +.' i.:.",
". + @ $ # # i # { { { ^ ] ] ] b ~ ^ [ ( ( c < ~ 6 6 | | | 1 3 5 4 5 _ m d 2 e $ l m : c c ( [ [ ~ b < ] b *.&.C v.x.y.) U '.q !.",
". + @ # # # a i a m ] ^ ] b b ~ ~ ^ ( ( _ / / e } } | 2 | 1 4 4 4 : m [ 2 } } n q l [ : ( [ [ ~ / / < ] ^ Y *.-.v.x.7.w.I % , >.",
". + @ # # # # ! { { ^ ] ] / b [ [ ^ c n b < : 6 } } | 2 2 3 5 5 6 < [ } | } 6 d b l q ( ( [ [ ~ b < ] ^ ^ Z ;.z.q x.$ y.) U d.A.",
". + @ # # i { ! { ^ ] ] < ~ ~ ~ [ ^ c ~ < n } } | | 2 1 1 5 4 2 < m 6 2 } 6 d d n a l ' ~ [ ~ b / < ^ ^ ^ { Y B.% C.$ 7.q., v.D.",
". + @ # a i a { ^ ^ < b / ~ ~ ~ ( ^ ( < ~ d } ( ( 6 | 5 4 4 3 b m 6 | } } } d d n _ # ; # ~ b / ] i s a { { r Q B.q k.'.y.% E.F.",
". + @ # # ! { ^ ^ ] ] / ~ [ [ ( _ ^ < ~ d e _ % { ( 1 1 5 5 ( s d | | } 6 e d : _ _ / q ; o / ] s % i s ! # # r < y.G.) q., n.H.",
". + @ a a { / ^ ^ < < / ~ [ [ ( n ^ < e } } ( q % ( 1 4 4 c m [ 2 | } } e : n n ( ( ( < % - ] ] s - % $ a a # # *.o.% u.I.E.s.J.",
". + @ a a ' { / < / / ~ ~ [ ( ( c ^ _ e e | | c c 2 4 4 d m [ | 2 | 6 6 : : _ c ( [ ~ ~ s l l ] ^ a a ! i # # # 7.I y.l.v.K.E.J.",
". + @ ! a - % m / ~ ~ ~ ( ( ( _ : : : } } | | 1 2 3 4 } < s 6 | } } } e : n : _ [ ( [ / < # @ ) { { a i # # # # # I I % q C.L.M.",
". + @ { { s s ] < < ~ ( [ c : : : 6 } } } 2 2 2 3 5 2 < m 6 | | } 6 e d : _ ( ( ( ~ ~ ~ / m l > $ a # # # # # # ) ' i.N.N.C.C.O.",
". + @ { ^ ] ] ] ~ ~ ~ [ ( c c : e e } 2 | | 3 5 5 3 b i d 2 | } } e d n : ( ( [ ~ ~ / < ] ] ! > > $ i i # # $ ) ) % % p.P.P.Q.O.",
". + @ ] ] ] ~ ~ ~ ~ ( ( ( _ : : d } } } | 2 1 5 4 _ s [ 2 | | 6 e d d n c ( [ [ ~ / < < ^ ^ { ' > - # # # # $ # i $ - ; ; R.S.T.",
". + @ ^ ] ^ / < [ [ [ < ] ~ : } } ( ( 6 2 1 5 5 5 m # ! ^ ^ ^ ^ { { { { a a a a a a a a a a a a o , # # # # $ % # i l ; ; ; R.T.",
". + @ ] ^ ' { / ~ [ b ' ! ] : 6 c % { ( 3 1 5 4 3 1 2 2 } } } d : : n ( ( ( ~ ~ ~ ~ < ] ^ ^ ! a a # # # # ) q > q l ; ; > @ @ U.",
". + @ ] < - % ^ ( ( b q % m e } ( q % ( 3 5 4 5 5 1 | | | e 6 e : c c ( [ ~ ~ ~ ] ] ] ] { { ! i # # # # $ $ ) l ; ; ; > @ @ @ U.",
". + @ ] / < / [ ( _ _ [ [ : e } | c c } 3 5 4 3 2 2 2 } } 6 6 : : : _ [ [ ~ / / ] ] ^ { { ! i # # # # # $ % , % - ; ; ; @ @ > U.",
". + @ / b ~ ~ ( ( n n d d 6 } } | 2 1 2 4 4 1 1 1 | | } } : : : _ ( ( ( ~ ~ ~ / ^ ] ] { { a a # # # # ) % % - ; ; ; @ > @ @ > U.",
". + ..l l l l l l l l l l l l l l l l l l l l l l l l l l l l l l l l l l l l l l l l l l l l l l l l l l l l l l l l l l l l O.",
". + 7 7 7 7 7 7 7 7 7 7 7 7 7 7 7 7 7 7 7 7 7 7 7 7 7 7 7 7 7 7 7 7 7 7 7 7 7 7 7 7 7 7 7 7 7 7 7 7 7 7 7 7 7 7 7 7 7 7 7 7 7 . ",
". + . . . . . . . . . . . . . . . . . . . . . . . . . . . . . . . . . . . . . . . . . . . . . . . . . . . . . . . . . . . . . . ",
". + . . . . . . . . . . . . . . . . . . . . . . . . . . . . . . . . . . . . . . . . . . . . . . . . . . . . . . . . . . . . . . ",
". . . . . . . . . . . . . . . . . . . . . . . . . . . . . . . . . . . . . . . . . . . . . . . . . . . . . . . . . . . . . . . . ",
"                                                                                                                                ",
"                                                                                                                                ",
"                                                                                                                                ",
"                                                                                                                                ",
"                                                                                                                                ",
"                                                                                                                                ",
"                                                                                                                                ",
"                                                                                                                                ",
"                                                                                                                                ",
"                                                                                                                                ",
"                                                                                                                                ",
"                                                                                                                                "};
